<?xml version="1.0" encoding="utf-8"?>
<!-- Generator: Adobe Illustrator 17.0.0, SVG Export Plug-In . SVG Version: 6.00 Build 0)  -->
<!DOCTYPE svg PUBLIC "-//W3C//DTD SVG 1.1//EN" "http://www.w3.org/Graphics/SVG/1.1/DTD/svg11.dtd">
<svg version="1.1" xmlns="http://www.w3.org/2000/svg" xmlns:xlink="http://www.w3.org/1999/xlink" x="0px" y="0px" width="64px"
	 height="64px" viewBox="0 0 64 64" enable-background="new 0 0 64 64" xml:space="preserve">
<g id="envato">
</g>
<g id="css3">
</g>
<g id="html5">
</g>
<g id="feed">
</g>
<g id="skype">
</g>
<g id="paypal">
</g>
<g id="evernote">
</g>
<g id="dropbox">
</g>
<g id="codepen">
</g>
<g id="jsfiddle">
</g>
<g id="medium">
</g>
<g id="squarespace">
</g>
<g id="joomla">
</g>
<g id="drupal">
</g>
<g id="wordpress">
</g>
<g id="linux">
</g>
<g id="windows">
</g>
<g id="apple">
	<g id="形状_1">
		<g>
			<path fill="#1B1B1B" d="M49.471,34.009c-0.081-8.107,6.611-11.996,6.909-12.192c-3.76-5.499-9.619-6.254-11.705-6.339
				c-4.981-0.507-9.726,2.934-12.254,2.934c-2.522,0-6.427-2.861-10.558-2.788c-5.436,0.081-10.445,3.162-13.242,8.027
				c-5.644,9.791-1.443,24.302,4.056,32.249c2.689,3.884,5.896,8.255,10.102,8.095c4.055-0.16,5.586-2.623,10.487-2.623
				c4.901,0,6.278,2.623,10.567,2.541c4.36-0.079,7.124-3.959,9.792-7.858c3.086-4.512,4.357-8.881,4.432-9.103
				C57.963,46.908,49.558,43.688,49.471,34.009z M41.412,10.219C43.643,7.51,45.154,3.746,44.744,0
				c-3.22,0.131-7.118,2.141-9.429,4.846c-2.071,2.401-3.882,6.223-3.397,9.902C35.51,15.027,39.173,12.922,41.412,10.219z"/>
		</g>
	</g>
</g>
<g id="android">
</g>
<g id="youtube">
</g>
<g id="yelp">
</g>
<g id="vine">
</g>
<g id="vimeo">
</g>
<g id="viadeo">
</g>
<g id="twitter">
</g>
<g id="tumblr">
</g>
<g id="stumbleupon">
</g>
<g id="spotify">
</g>
<g id="soundcloud">
</g>
<g id="reddit">
</g>
<g id="rdio">
</g>
<g id="quora">
</g>
<g id="pinterest">
</g>
<g id="linkedin">
</g>
<g id="lastfm">
</g>
<g id="instagram">
</g>
<g id="google-plus">
</g>
<g id="github">
</g>
<g id="foursquare">
</g>
<g id="flickr">
</g>
<g id="facebook">
</g>
<g id="dribbble">
</g>
<g id="deviantart">
</g>
<g id="delicious">
</g>
<g id="blogger">
</g>
<g id="behance">
</g>
</svg>
