<?xml version="1.0" encoding="utf-8"?>
<!-- Generator: Adobe Illustrator 17.0.0, SVG Export Plug-In . SVG Version: 6.00 Build 0)  -->
<!DOCTYPE svg PUBLIC "-//W3C//DTD SVG 1.1//EN" "http://www.w3.org/Graphics/SVG/1.1/DTD/svg11.dtd">
<svg version="1.1" xmlns="http://www.w3.org/2000/svg" xmlns:xlink="http://www.w3.org/1999/xlink" x="0px" y="0px" width="64px"
	 height="64px" viewBox="0 0 64 64" enable-background="new 0 0 64 64" xml:space="preserve">
<g id="envato">
</g>
<g id="css3">
</g>
<g id="html5">
</g>
<g id="feed">
</g>
<g id="skype">
</g>
<g id="paypal">
</g>
<g id="evernote">
</g>
<g id="dropbox">
</g>
<g id="codepen">
</g>
<g id="jsfiddle">
</g>
<g id="medium">
</g>
<g id="squarespace">
</g>
<g id="joomla">
</g>
<g id="drupal">
</g>
<g id="wordpress">
</g>
<g id="linux">
</g>
<g id="windows">
</g>
<g id="apple">
</g>
<g id="android">
</g>
<g id="youtube">
</g>
<g id="yelp">
</g>
<g id="vine">
</g>
<g id="vimeo">
</g>
<g id="viadeo">
</g>
<g id="twitter">
</g>
<g id="tumblr">
</g>
<g id="stumbleupon">
</g>
<g id="spotify">
</g>
<g id="soundcloud">
</g>
<g id="reddit">
</g>
<g id="rdio">
</g>
<g id="quora">
</g>
<g id="pinterest">
</g>
<g id="linkedin">
</g>
<g id="lastfm">
</g>
<g id="instagram">
</g>
<g id="google-plus">
</g>
<g id="github">
</g>
<g id="foursquare">
</g>
<g id="flickr">
</g>
<g id="facebook">
</g>
<g id="dribbble">
</g>
<g id="deviantart">
</g>
<g id="delicious">
</g>
<g id="blogger">
	<path d="M63.803,25.954l-0.537-1.104l-0.908-0.686c-1.188-0.925-7.188,0.112-8.807-1.349c-1.145-1.053-1.318-2.85-1.668-5.406
		c-0.643-4.967-1.055-5.028-1.832-6.706C47.221,4.727,39.557,0,34.289,0H20.018C8.791,0,0,8.378,0,19.557v23.714
		C0,54.43,8.791,64,20.018,64h23.447c11.227,0,20.338-9.352,20.402-20.509L64,26.852L63.803,25.954z M20.275,16.41H31.59
		c2.16,0,3.908,1.963,3.908,4.093c0,2.128-1.748,4.112-3.908,4.112H20.275c-2.158,0-3.908-1.984-3.908-4.112
		C16.367,18.373,18.117,16.41,20.275,16.41z M43.271,47.59H20.275c-2.158,0-3.908-1.995-3.908-4.103c0-2.13,1.75-4.104,3.908-4.104
		h22.997c2.137,0,3.883,1.974,3.883,4.104C47.154,45.595,45.408,47.59,43.271,47.59z"/>
</g>
<g id="behance">
</g>
</svg>
