<?xml version="1.0" encoding="utf-8"?>
<!-- Generator: Adobe Illustrator 17.0.0, SVG Export Plug-In . SVG Version: 6.00 Build 0)  -->
<!DOCTYPE svg PUBLIC "-//W3C//DTD SVG 1.1//EN" "http://www.w3.org/Graphics/SVG/1.1/DTD/svg11.dtd">
<svg version="1.1" xmlns="http://www.w3.org/2000/svg" xmlns:xlink="http://www.w3.org/1999/xlink" x="0px" y="0px" width="64px"
	 height="64px" viewBox="0 0 64 64" enable-background="new 0 0 64 64" xml:space="preserve">
<g id="envato">
</g>
<g id="css3">
	<g>
		<path fill="#1B1B1B" d="M9.156,12.601l4.283,46.401L32,64l18.56-4.998l4.284-46.401H9.156z M45.628,27.571L32,33.429v-0.013
			l-0.032,0.014H32h13.218l-1.516,17.437L32.021,54.28l-0.005-0.001L32,54.273v0.006l-11.65-3.477l-0.752-8.788h5.763l0.376,4.552
			l6.201,1.581l0.01-0.003L32,48.129v0.01l0.017-0.005l6.445-1.816l0.442-7.298l-6.887-0.008H32v0.004l-12.778-0.001l-0.001-0.009
			l-0.439-5.577h0.001L32,27.842v0.002l0.644-0.273h-0.64V27.57L32,27.571H18.248l-0.691-5.586H32h14.169h0l-0.564,5.586H45.628z"/>
		<path fill="#1B1B1B" d="M45.556,5.784l-2.817-2.762h2.817V0h-7.052c0,0,0,1.517,0,3.022c0.943,0.943,1.436,1.395,2.8,2.76
			c-0.797,0-2.8,0.003-2.8,0.003v2.757h7.052V5.784z"/>
		<polygon fill="#1B1B1B" points="25.495,5.784 21.466,5.784 21.466,3.022 25.495,3.022 25.495,0 18.444,0 18.444,8.542 
			25.495,8.542 		"/>
		<path fill="#1B1B1B" d="M35.561,5.784l-2.817-2.762h2.817V0h-7.052c0,0,0,1.517,0,3.022c0.943,0.943,1.435,1.395,2.8,2.76
			c-0.797,0-2.8,0.003-2.8,0.003v2.757h7.052V5.784z"/>
	</g>
</g>
<g id="html5">
</g>
<g id="feed">
</g>
<g id="skype">
</g>
<g id="paypal">
</g>
<g id="evernote">
</g>
<g id="dropbox">
</g>
<g id="codepen">
</g>
<g id="jsfiddle">
</g>
<g id="medium">
</g>
<g id="squarespace">
</g>
<g id="joomla">
</g>
<g id="drupal">
</g>
<g id="wordpress">
</g>
<g id="linux">
</g>
<g id="windows">
</g>
<g id="apple">
</g>
<g id="android">
</g>
<g id="youtube">
</g>
<g id="yelp">
</g>
<g id="vine">
</g>
<g id="vimeo">
</g>
<g id="viadeo">
</g>
<g id="twitter">
</g>
<g id="tumblr">
</g>
<g id="stumbleupon">
</g>
<g id="spotify">
</g>
<g id="soundcloud">
</g>
<g id="reddit">
</g>
<g id="rdio">
</g>
<g id="quora">
</g>
<g id="pinterest">
</g>
<g id="linkedin">
</g>
<g id="lastfm">
</g>
<g id="instagram">
</g>
<g id="google-plus">
</g>
<g id="github">
</g>
<g id="foursquare">
</g>
<g id="flickr">
</g>
<g id="facebook">
</g>
<g id="dribbble">
</g>
<g id="deviantart">
</g>
<g id="delicious">
</g>
<g id="blogger">
</g>
<g id="behance">
</g>
</svg>
