<?xml version="1.0" encoding="utf-8"?>
<!-- Generator: Adobe Illustrator 17.0.0, SVG Export Plug-In . SVG Version: 6.00 Build 0)  -->
<!DOCTYPE svg PUBLIC "-//W3C//DTD SVG 1.1//EN" "http://www.w3.org/Graphics/SVG/1.1/DTD/svg11.dtd">
<svg version="1.1" xmlns="http://www.w3.org/2000/svg" xmlns:xlink="http://www.w3.org/1999/xlink" x="0px" y="0px" width="64px"
	 height="64px" viewBox="0 0 64 64" enable-background="new 0 0 64 64" xml:space="preserve">
<g id="envato">
</g>
<g id="css3">
</g>
<g id="html5">
	<g>
		<path d="M9.329,12.577l4.126,46.282L31.972,64l18.568-5.148l4.131-46.275H9.329z M46.064,23.561l-0.259,2.878l-0.114,1.276H31.98
			v0h-8.01l0.519,5.813h7.492H32h13.175l-0.138,1.524l-1.334,14.944l-0.085,0.959L32,54.174v0.001l-0.026,0.007l-11.628-3.228
			l-0.795-8.913h5.698l0.404,4.527l6.322,1.707l0.005-0.001v0l6.331-1.709l0.659-7.362h-6.99v0H19.297l-1.395-15.642l-0.136-1.523
			H31.98v0h14.219L46.064,23.561z"/>
		<polygon points="50.532,5.778 46.475,5.778 46.475,0 43.59,0 43.59,8.631 50.532,8.631 		"/>
		<polygon points="16.432,5.74 19.071,5.74 19.071,8.631 21.956,8.631 21.956,0 19.071,0 19.071,2.85 16.432,2.85 16.432,0 
			13.548,0 13.548,8.631 16.432,8.631 		"/>
		<polygon points="25.749,8.631 28.634,8.631 28.634,2.862 31.175,2.862 31.175,0 23.21,0 23.21,2.862 25.749,2.862 		"/>
		<polygon points="35.261,4.353 37.247,7.421 37.297,7.421 39.281,4.353 39.281,8.631 42.154,8.631 42.154,0 39.145,0 37.297,3.033 
			35.447,0 32.439,0 32.439,8.631 35.261,8.631 		"/>
	</g>
</g>
<g id="feed">
</g>
<g id="skype">
</g>
<g id="paypal">
</g>
<g id="evernote">
</g>
<g id="dropbox">
</g>
<g id="codepen">
</g>
<g id="jsfiddle">
</g>
<g id="medium">
</g>
<g id="squarespace">
</g>
<g id="joomla">
</g>
<g id="drupal">
</g>
<g id="wordpress">
</g>
<g id="linux">
</g>
<g id="windows">
</g>
<g id="apple">
</g>
<g id="android">
</g>
<g id="youtube">
</g>
<g id="yelp">
</g>
<g id="vine">
</g>
<g id="vimeo">
</g>
<g id="viadeo">
</g>
<g id="twitter">
</g>
<g id="tumblr">
</g>
<g id="stumbleupon">
</g>
<g id="spotify">
</g>
<g id="soundcloud">
</g>
<g id="reddit">
</g>
<g id="rdio">
</g>
<g id="quora">
</g>
<g id="pinterest">
</g>
<g id="linkedin">
</g>
<g id="lastfm">
</g>
<g id="instagram">
</g>
<g id="google-plus">
</g>
<g id="github">
</g>
<g id="foursquare">
</g>
<g id="flickr">
</g>
<g id="facebook">
</g>
<g id="dribbble">
</g>
<g id="deviantart">
</g>
<g id="delicious">
</g>
<g id="blogger">
</g>
<g id="behance">
</g>
</svg>
