<?xml version="1.0" encoding="utf-8"?>
<!-- Generator: Adobe Illustrator 17.0.0, SVG Export Plug-In . SVG Version: 6.00 Build 0)  -->
<!DOCTYPE svg PUBLIC "-//W3C//DTD SVG 1.1//EN" "http://www.w3.org/Graphics/SVG/1.1/DTD/svg11.dtd">
<svg version="1.1" xmlns="http://www.w3.org/2000/svg" xmlns:xlink="http://www.w3.org/1999/xlink" x="0px" y="0px" width="64px"
	 height="64px" viewBox="0 0 64 64" enable-background="new 0 0 64 64" xml:space="preserve">
<g id="envato">
</g>
<g id="css3">
</g>
<g id="html5">
</g>
<g id="feed">
</g>
<g id="skype">
</g>
<g id="paypal">
</g>
<g id="evernote">
</g>
<g id="dropbox">
</g>
<g id="codepen">
</g>
<g id="jsfiddle">
</g>
<g id="medium">
</g>
<g id="squarespace">
</g>
<g id="joomla">
</g>
<g id="drupal">
</g>
<g id="wordpress">
</g>
<g id="linux">
</g>
<g id="windows">
</g>
<g id="apple">
</g>
<g id="android">
</g>
<g id="youtube">
</g>
<g id="yelp">
</g>
<g id="vine">
</g>
<g id="vimeo">
</g>
<g id="viadeo">
</g>
<g id="twitter">
</g>
<g id="tumblr">
</g>
<g id="stumbleupon">
</g>
<g id="spotify">
</g>
<g id="soundcloud">
</g>
<g id="reddit">
</g>
<g id="rdio">
</g>
<g id="quora">
</g>
<g id="pinterest">
</g>
<g id="linkedin">
</g>
<g id="lastfm">
</g>
<g id="instagram">
	<path fill-rule="evenodd" clip-rule="evenodd" d="M56.521,0H7.371C3.3,0,0,3.3,0,7.37v49.146C0,60.589,3.3,64,7.371,64h49.15
		C60.591,64,64,60.589,64,56.516V7.37C64,3.3,60.591,0,56.521,0z M31.945,19.658c6.786,0,12.288,5.5,12.288,12.286
		c0,6.785-5.502,12.288-12.288,12.288c-6.786,0-12.287-5.503-12.287-12.288C19.659,25.158,25.159,19.658,31.945,19.658z M57,54.061
		C57,55.416,55.42,57,54.061,57H9.831C8.471,57,7,55.416,7,54.061V27h5.933c-0.405,2-0.646,3.231-0.646,4.93
		c0,10.859,8.801,19.666,19.658,19.666c10.857,0,19.658-8.811,19.658-19.67c0-1.699-0.239-2.927-0.645-4.927H57V54.061z M57,17.201
		C57,18.557,55.42,20,54.061,20h-7.37C45.333,20,44,18.557,44,17.201V9.827C44,8.471,45.333,7,46.69,7h7.37
		C55.42,7,57,8.471,57,9.827V17.201z"/>
</g>
<g id="google-plus">
</g>
<g id="github">
</g>
<g id="foursquare">
</g>
<g id="flickr">
</g>
<g id="facebook">
</g>
<g id="dribbble">
</g>
<g id="deviantart">
</g>
<g id="delicious">
</g>
<g id="blogger">
</g>
<g id="behance">
</g>
</svg>
