<?xml version="1.0" encoding="utf-8"?>
<!-- Generator: Adobe Illustrator 17.0.0, SVG Export Plug-In . SVG Version: 6.00 Build 0)  -->
<!DOCTYPE svg PUBLIC "-//W3C//DTD SVG 1.1//EN" "http://www.w3.org/Graphics/SVG/1.1/DTD/svg11.dtd">
<svg version="1.1" xmlns="http://www.w3.org/2000/svg" xmlns:xlink="http://www.w3.org/1999/xlink" x="0px" y="0px" width="64px"
	 height="64px" viewBox="0 0 64 64" enable-background="new 0 0 64 64" xml:space="preserve">
<g id="envato">
</g>
<g id="css3">
</g>
<g id="html5">
</g>
<g id="feed">
</g>
<g id="skype">
</g>
<g id="paypal">
</g>
<g id="evernote">
</g>
<g id="dropbox">
</g>
<g id="codepen">
</g>
<g id="jsfiddle">
</g>
<g id="medium">
</g>
<g id="squarespace">
</g>
<g id="joomla">
	<path d="M6.747,16.938c-1.446,4.841-0.265,10.302,3.554,14.124l1.229,1.23l6.319,6.322l6.691,6.688l6.312-6.326l-6.683-6.686
		l-6.32-6.321l-1.235-1.235c-2.045-2.045-2.047-5.383,0.011-7.442c2.051-2.054,5.375-2.054,7.426-0.002l0.489,0.491l6.317-6.322
		l-0.492-0.493C26.763,7.361,21.708,6.1,17.088,7.185C16.429,3.111,12.899,0.002,8.643,0C3.914,0,0.082,3.842,0.082,8.572
		C0.082,12.656,2.93,16.072,6.747,16.938z M25.287,18.529l6.319-6.32l1.23-1.229c3.805-3.808,9.225-5.006,14.041-3.591
		C47.452,3.217,51.033,0,55.357,0c4.729,0,8.562,3.838,8.562,8.572c0,4.354-3.235,7.949-7.433,8.5
		c1.375,4.805,0.175,10.19-3.604,13.978l-0.49,0.496l-6.312-6.328l0.486-0.491c2.052-2.052,2.052-5.381,0.002-7.433
		c-2.043-2.046-5.357-2.049-7.418,0.011l-1.23,1.23l-6.32,6.323l-6.682,6.688L18.6,25.223L25.287,18.529z M64,55.43
		c0,4.736-3.834,8.57-8.559,8.57c-4.148,0-7.604-2.945-8.395-6.861c-4.857,1.496-10.367,0.318-14.211-3.531l-0.482-0.483
		l6.314-6.326l0.482,0.486c2.051,2.053,5.377,2.053,7.426,0.002c2.044-2.047,2.052-5.365-0.01-7.429L45.33,38.62l-6.312-6.326
		l-6.669-6.686l6.32-6.32l6.662,6.681l6.314,6.325l1.238,1.242c3.635,3.637,4.891,8.752,3.756,13.405
		C60.801,47.525,64,51.105,64,55.43z M37.921,46.051l-6.314,6.326l-1.24,1.24c-3.645,3.652-8.79,4.893-13.458,3.734
		C16.035,61.162,12.63,63.998,8.563,64C3.833,64,0,60.164,0,55.43c0-4.053,2.81-7.451,6.584-8.344
		c-1.193-4.697,0.047-9.885,3.717-13.561l0.483-0.482l6.318,6.32l-0.488,0.486c-2.05,2.055-2.05,5.379,0.003,7.436
		c2.056,2.059,5.389,2.057,7.434,0.008l1.235-1.24l6.313-6.322l6.672-6.688l6.311,6.326L37.921,46.051z"/>
</g>
<g id="drupal">
</g>
<g id="wordpress">
</g>
<g id="linux">
</g>
<g id="windows">
</g>
<g id="apple">
</g>
<g id="android">
</g>
<g id="youtube">
</g>
<g id="yelp">
</g>
<g id="vine">
</g>
<g id="vimeo">
</g>
<g id="viadeo">
</g>
<g id="twitter">
</g>
<g id="tumblr">
</g>
<g id="stumbleupon">
</g>
<g id="spotify">
</g>
<g id="soundcloud">
</g>
<g id="reddit">
</g>
<g id="rdio">
</g>
<g id="quora">
</g>
<g id="pinterest">
</g>
<g id="linkedin">
</g>
<g id="lastfm">
</g>
<g id="instagram">
</g>
<g id="google-plus">
</g>
<g id="github">
</g>
<g id="foursquare">
</g>
<g id="flickr">
</g>
<g id="facebook">
</g>
<g id="dribbble">
</g>
<g id="deviantart">
</g>
<g id="delicious">
</g>
<g id="blogger">
</g>
<g id="behance">
</g>
</svg>
