<?xml version="1.0" encoding="utf-8"?>
<!-- Generator: Adobe Illustrator 17.0.0, SVG Export Plug-In . SVG Version: 6.00 Build 0)  -->
<!DOCTYPE svg PUBLIC "-//W3C//DTD SVG 1.1//EN" "http://www.w3.org/Graphics/SVG/1.1/DTD/svg11.dtd">
<svg version="1.1" xmlns="http://www.w3.org/2000/svg" xmlns:xlink="http://www.w3.org/1999/xlink" x="0px" y="0px" width="64px"
	 height="64px" viewBox="0 0 64 64" enable-background="new 0 0 64 64" xml:space="preserve">
<g id="envato">
</g>
<g id="css3">
</g>
<g id="html5">
</g>
<g id="feed">
</g>
<g id="skype">
	<path d="M61.736,37.33c-0.021,0.112-0.036,0.226-0.057,0.338l-0.108-0.643C61.629,37.124,61.679,37.228,61.736,37.33
		c0.329-1.798,0.502-3.639,0.502-5.479c0-4.08-0.799-8.038-2.376-11.764c-1.522-3.599-3.701-6.831-6.477-9.606
		c-2.774-2.776-6.008-4.954-9.605-6.477C40.054,2.429,36.096,1.63,32.017,1.63c-1.923,0-3.847,0.181-5.723,0.541
		c-0.004,0.001-0.009,0.001-0.014,0.002c0.105,0.056,0.212,0.106,0.315,0.163L25.96,2.237c0.106-0.021,0.213-0.042,0.32-0.064
		c-2.572-1.367-5.463-2.097-8.39-2.097c-4.778,0-9.273,1.861-12.652,5.241C1.86,8.696,0,13.188,0,17.968
		C0,21.01,0.78,24,2.25,26.643c0.019-0.111,0.032-0.221,0.052-0.33l0.11,0.632c-0.057-0.099-0.107-0.203-0.162-0.303
		c-0.299,1.711-0.456,3.461-0.456,5.208c0,4.079,0.801,8.037,2.378,11.764c1.52,3.601,3.701,6.832,6.474,9.605
		c2.776,2.775,6.006,4.957,9.607,6.475c3.726,1.58,7.685,2.379,11.764,2.379c1.776,0,3.556-0.161,5.294-0.47
		c-0.102-0.057-0.206-0.108-0.309-0.167l0.645,0.113c-0.112,0.021-0.224,0.035-0.337,0.054c2.677,1.514,5.706,2.32,8.801,2.32
		c4.78,0,9.27-1.86,12.649-5.24c3.38-3.377,5.24-7.871,5.24-12.65C64,42.982,63.214,39.982,61.736,37.33z M32.138,50.36
		c-10.738,0-15.54-5.278-15.54-9.235c0-2.03,1.498-3.451,3.563-3.451c4.594,0,3.405,6.597,11.977,6.597
		c4.388,0,6.812-2.383,6.812-4.823c0-1.467-0.724-3.091-3.614-3.803l-9.549-2.385c-7.692-1.928-9.088-6.085-9.088-9.994
		c0-8.115,7.64-11.162,14.817-11.162c6.609,0,14.4,3.652,14.4,8.521c0,2.087-1.807,3.299-3.869,3.299
		c-3.922,0-3.2-5.427-11.098-5.427c-3.921,0-6.092,1.775-6.092,4.315c0,2.535,3.097,3.344,5.784,3.957l7.069,1.569
		c7.742,1.724,9.706,6.245,9.706,10.503C47.416,45.436,42.354,50.36,32.138,50.36z"/>
</g>
<g id="paypal">
</g>
<g id="evernote">
</g>
<g id="dropbox">
</g>
<g id="codepen">
</g>
<g id="jsfiddle">
</g>
<g id="medium">
</g>
<g id="squarespace">
</g>
<g id="joomla">
</g>
<g id="drupal">
</g>
<g id="wordpress">
</g>
<g id="linux">
</g>
<g id="windows">
</g>
<g id="apple">
</g>
<g id="android">
</g>
<g id="youtube">
</g>
<g id="yelp">
</g>
<g id="vine">
</g>
<g id="vimeo">
</g>
<g id="viadeo">
</g>
<g id="twitter">
</g>
<g id="tumblr">
</g>
<g id="stumbleupon">
</g>
<g id="spotify">
</g>
<g id="soundcloud">
</g>
<g id="reddit">
</g>
<g id="rdio">
</g>
<g id="quora">
</g>
<g id="pinterest">
</g>
<g id="linkedin">
</g>
<g id="lastfm">
</g>
<g id="instagram">
</g>
<g id="google-plus">
</g>
<g id="github">
</g>
<g id="foursquare">
</g>
<g id="flickr">
</g>
<g id="facebook">
</g>
<g id="dribbble">
</g>
<g id="deviantart">
</g>
<g id="delicious">
</g>
<g id="blogger">
</g>
<g id="behance">
</g>
</svg>
