<?xml version="1.0" encoding="utf-8"?>
<!-- Generator: Adobe Illustrator 17.0.0, SVG Export Plug-In . SVG Version: 6.00 Build 0)  -->
<!DOCTYPE svg PUBLIC "-//W3C//DTD SVG 1.1//EN" "http://www.w3.org/Graphics/SVG/1.1/DTD/svg11.dtd">
<svg version="1.1" xmlns="http://www.w3.org/2000/svg" xmlns:xlink="http://www.w3.org/1999/xlink" x="0px" y="0px" width="64px"
	 height="64px" viewBox="0 0 64 64" enable-background="new 0 0 64 64" xml:space="preserve">
<g id="envato">
</g>
<g id="css3">
</g>
<g id="html5">
</g>
<g id="feed">
</g>
<g id="skype">
</g>
<g id="paypal">
</g>
<g id="evernote">
</g>
<g id="dropbox">
</g>
<g id="codepen">
</g>
<g id="jsfiddle">
</g>
<g id="medium">
</g>
<g id="squarespace">
</g>
<g id="joomla">
</g>
<g id="drupal">
</g>
<g id="wordpress">
</g>
<g id="linux">
</g>
<g id="windows">
</g>
<g id="apple">
</g>
<g id="android">
</g>
<g id="youtube">
</g>
<g id="yelp">
</g>
<g id="vine">
</g>
<g id="vimeo">
</g>
<g id="viadeo">
	<g>
		<path d="M29.62,0c0,0,7.565,5.015,8.868,18.803c0,0,2.555,33.122-14.581,39.617c0,0,1.533,0.286,3.262,0.204
			c0,0,21.189-13.364,11.469-39.312C38.638,19.312,35.732,10.256,29.62,0z"/>
		<path d="M40.681,22.622c0,0-3.947-6.108,1.063-11.145c0,0,1.754-1.933,6.764-3.206c0,0,5.01-1.068,7.716-6.818
			c0,0,5.611,7.836,2.159,18.149c0,0-1.708,4.644-5.271,6.764c-2.688,1.599-6.759,2.102-11.018-2.069
			c0,0,12.877-7.055,13.357-13.027C55.453,11.271,51.498,20.161,40.681,22.622z"/>
		<path d="M43.964,41.155c0,3.175-0.758,6.135-2.273,8.879c-1.517,2.745-3.564,4.864-6.144,6.357c-2.58,1.493-5.412,2.24-8.496,2.24
			c-3.085,0-5.917-0.747-8.496-2.24c-2.58-1.493-4.627-3.613-6.143-6.357c-1.516-2.745-2.274-5.704-2.274-8.879
			c0-4.924,1.662-9.122,4.987-12.593c3.323-3.471,7.3-5.207,11.927-5.207c2.202,0,4.256,0.402,6.168,1.196
			c0.191-2.011,0.897-3.883,1.679-5.411c-2.406-0.873-5.013-1.315-7.826-1.315c-6.69,0-12.225,2.462-16.604,7.386
			c-3.983,4.467-5.973,9.741-5.973,15.822c0,6.135,2.104,11.497,6.311,16.084C15.011,61.706,20.433,64,27.071,64
			c6.609,0,12.019-2.294,16.226-6.882c4.207-4.587,6.311-9.949,6.311-16.084c0-3.283-0.58-6.327-1.731-9.136
			c-1.932,1.188-3.767,1.81-5.288,2.127C43.503,36.204,43.964,38.579,43.964,41.155z"/>
	</g>
</g>
<g id="twitter">
</g>
<g id="tumblr">
</g>
<g id="stumbleupon">
</g>
<g id="spotify">
</g>
<g id="soundcloud">
</g>
<g id="reddit">
</g>
<g id="rdio">
</g>
<g id="quora">
</g>
<g id="pinterest">
</g>
<g id="linkedin">
</g>
<g id="lastfm">
</g>
<g id="instagram">
</g>
<g id="google-plus">
</g>
<g id="github">
</g>
<g id="foursquare">
</g>
<g id="flickr">
</g>
<g id="facebook">
</g>
<g id="dribbble">
</g>
<g id="deviantart">
</g>
<g id="delicious">
</g>
<g id="blogger">
</g>
<g id="behance">
</g>
</svg>
