<?xml version="1.0" encoding="utf-8"?>
<!-- Generator: Adobe Illustrator 17.0.0, SVG Export Plug-In . SVG Version: 6.00 Build 0)  -->
<!DOCTYPE svg PUBLIC "-//W3C//DTD SVG 1.1//EN" "http://www.w3.org/Graphics/SVG/1.1/DTD/svg11.dtd">
<svg version="1.1" xmlns="http://www.w3.org/2000/svg" xmlns:xlink="http://www.w3.org/1999/xlink" x="0px" y="0px" width="64px"
	 height="64px" viewBox="0 0 64 64" enable-background="new 0 0 64 64" xml:space="preserve">
<g id="envato">
</g>
<g id="css3">
</g>
<g id="html5">
</g>
<g id="feed">
</g>
<g id="skype">
</g>
<g id="paypal">
</g>
<g id="evernote">
</g>
<g id="dropbox">
</g>
<g id="codepen">
</g>
<g id="jsfiddle">
</g>
<g id="medium">
</g>
<g id="squarespace">
</g>
<g id="joomla">
</g>
<g id="drupal">
</g>
<g id="wordpress">
</g>
<g id="linux">
</g>
<g id="windows">
</g>
<g id="apple">
</g>
<g id="android">
</g>
<g id="youtube">
</g>
<g id="yelp">
</g>
<g id="vine">
	<path d="M59,31.162c-2,0.579-3.706,0.869-5.359,0.842c-9.273-0.142-13.336-6.098-13.336-15.624c0-4.668,2.318-7.52,4.872-7.52
		c2.426,0,4.331,2.154,4.331,6.574c0,2.55-0.584,5.317-1.084,6.934c1.557,2.741,3.73,3.869,8.55,2.993
		c1.555-3.172,2.413-6.997,2.413-10.734c0-9.521-5.335-14.601-14.237-14.601c-9.151,0-14.621,7.347-14.621,16.623
		c0,9.188,4.546,16.657,11.628,20.249c-2.976,5.96-7.291,12.166-11.242,16.12C23.716,44.313,17.667,32,15.025,9H4.61
		c3.915,37,18.867,51.715,22.727,54.017c2.178,1.309,4.054,1.294,6.047,0.17c3.128-1.779,12.572-12.83,17.776-23.829
		c2.33-0.007,4.84-0.374,7.84-1.166V31.162z"/>
</g>
<g id="vimeo">
</g>
<g id="viadeo">
</g>
<g id="twitter">
</g>
<g id="tumblr">
</g>
<g id="stumbleupon">
</g>
<g id="spotify">
</g>
<g id="soundcloud">
</g>
<g id="reddit">
</g>
<g id="rdio">
</g>
<g id="quora">
</g>
<g id="pinterest">
</g>
<g id="linkedin">
</g>
<g id="lastfm">
</g>
<g id="instagram">
</g>
<g id="google-plus">
</g>
<g id="github">
</g>
<g id="foursquare">
</g>
<g id="flickr">
</g>
<g id="facebook">
</g>
<g id="dribbble">
</g>
<g id="deviantart">
</g>
<g id="delicious">
</g>
<g id="blogger">
</g>
<g id="behance">
</g>
</svg>
