<?xml version="1.0" encoding="utf-8"?>
<!-- Generator: Adobe Illustrator 17.0.0, SVG Export Plug-In . SVG Version: 6.00 Build 0)  -->
<!DOCTYPE svg PUBLIC "-//W3C//DTD SVG 1.1//EN" "http://www.w3.org/Graphics/SVG/1.1/DTD/svg11.dtd">
<svg version="1.1" xmlns="http://www.w3.org/2000/svg" xmlns:xlink="http://www.w3.org/1999/xlink" x="0px" y="0px" width="64px"
	 height="64px" viewBox="0 0 64 64" enable-background="new 0 0 64 64" xml:space="preserve">
<g id="envato">
</g>
<g id="css3">
</g>
<g id="html5">
</g>
<g id="feed">
</g>
<g id="skype">
</g>
<g id="paypal">
</g>
<g id="evernote">
</g>
<g id="dropbox">
</g>
<g id="codepen">
</g>
<g id="jsfiddle">
</g>
<g id="medium">
</g>
<g id="squarespace">
</g>
<g id="joomla">
</g>
<g id="drupal">
</g>
<g id="wordpress">
	<path d="M32,0C14.355,0,0,14.355,0,31.999C0,49.644,14.355,64,32,64c17.644,0,32-14.356,32-32.001C64,14.355,49.644,0,32,0z
		 M3.23,31.999c0-4.171,0.895-8.131,2.491-11.709l13.724,37.602C9.847,53.229,3.23,43.387,3.23,31.999z M32,60.771
		c-2.824,0-5.55-0.414-8.128-1.172l8.633-25.083l8.843,24.228c0.058,0.142,0.13,0.273,0.206,0.396
		C38.563,60.193,35.35,60.771,32,60.771z M35.965,18.51c1.732-0.091,3.293-0.273,3.293-0.273c1.55-0.183,1.367-2.462-0.184-2.371
		c0,0-4.66,0.366-7.668,0.366c-2.827,0-7.577-0.366-7.577-0.366c-1.551-0.091-1.733,2.279-0.183,2.371c0,0,1.468,0.182,3.018,0.273
		l4.482,12.281l-6.297,18.883L14.372,18.51c1.733-0.091,3.293-0.273,3.293-0.273c1.549-0.183,1.366-2.462-0.184-2.371
		c0,0-4.659,0.366-7.668,0.366c-0.54,0-1.176-0.013-1.852-0.035C13.106,8.386,21.948,3.229,32,3.229
		c7.49,0,14.31,2.864,19.428,7.554c-0.124-0.008-0.245-0.023-0.373-0.023c-2.826,0-4.831,2.462-4.831,5.106
		c0,2.371,1.368,4.377,2.826,6.748c1.094,1.916,2.372,4.378,2.372,7.935c0,2.462-0.947,5.32-2.189,9.301l-2.87,9.588L35.965,18.51z
		 M57.246,18.196c2.246,4.098,3.524,8.8,3.524,13.802c0,10.614-5.752,19.881-14.306,24.868l8.787-25.407
		c1.641-4.104,2.188-7.386,2.188-10.305C57.439,20.096,57.37,19.113,57.246,18.196z"/>
</g>
<g id="linux">
</g>
<g id="windows">
</g>
<g id="apple">
</g>
<g id="android">
</g>
<g id="youtube">
</g>
<g id="yelp">
</g>
<g id="vine">
</g>
<g id="vimeo">
</g>
<g id="viadeo">
</g>
<g id="twitter">
</g>
<g id="tumblr">
</g>
<g id="stumbleupon">
</g>
<g id="spotify">
</g>
<g id="soundcloud">
</g>
<g id="reddit">
</g>
<g id="rdio">
</g>
<g id="quora">
</g>
<g id="pinterest">
</g>
<g id="linkedin">
</g>
<g id="lastfm">
</g>
<g id="instagram">
</g>
<g id="google-plus">
</g>
<g id="github">
</g>
<g id="foursquare">
</g>
<g id="flickr">
</g>
<g id="facebook">
</g>
<g id="dribbble">
</g>
<g id="deviantart">
</g>
<g id="delicious">
</g>
<g id="blogger">
</g>
<g id="behance">
</g>
</svg>
