<?xml version="1.0" encoding="utf-8"?>
<!-- Generator: Adobe Illustrator 17.0.0, SVG Export Plug-In . SVG Version: 6.00 Build 0)  -->
<!DOCTYPE svg PUBLIC "-//W3C//DTD SVG 1.1//EN" "http://www.w3.org/Graphics/SVG/1.1/DTD/svg11.dtd">
<svg version="1.1" xmlns="http://www.w3.org/2000/svg" xmlns:xlink="http://www.w3.org/1999/xlink" x="0px" y="0px" width="64px"
	 height="64px" viewBox="0 0 64 64" enable-background="new 0 0 64 64" xml:space="preserve">
<g id="envato">
</g>
<g id="css3">
</g>
<g id="html5">
</g>
<g id="feed">
</g>
<g id="skype">
</g>
<g id="paypal">
</g>
<g id="evernote">
</g>
<g id="dropbox">
</g>
<g id="codepen">
</g>
<g id="jsfiddle">
</g>
<g id="medium">
</g>
<g id="squarespace">
</g>
<g id="joomla">
</g>
<g id="drupal">
</g>
<g id="wordpress">
</g>
<g id="linux">
</g>
<g id="windows">
</g>
<g id="apple">
</g>
<g id="android">
</g>
<g id="youtube">
</g>
<g id="yelp">
	<g>
		<path d="M9.371,30.811c-1.016,1.667-1.445,6.913-1.094,10.398c0.124,1.15,0.328,2.107,0.622,2.679
			c0.406,0.791,1.09,1.262,1.871,1.289c0.499,0.028,0.81-0.061,10.203-3.152c0,0,4.176-1.36,4.193-1.369
			c1.041-0.268,1.741-1.248,1.812-2.501c0.066-1.281-0.583-2.416-1.648-2.823c0,0-2.943-1.228-2.95-1.228
			c-10.094-4.259-10.547-4.427-11.057-4.434C10.546,29.64,9.849,30.041,9.371,30.811z"/>
		<path d="M31.954,62.546c0.163-0.483,0.183-0.817,0.209-10.912c0,0,0.024-4.46,0.027-4.507c0.065-1.091-0.622-2.084-1.759-2.535
			c-1.166-0.458-2.421-0.174-3.124,0.725c0,0-2.058,2.501-2.066,2.501c-7.076,8.496-7.367,8.888-7.54,9.392
			c-0.105,0.3-0.149,0.611-0.111,0.927c0.042,0.448,0.24,0.895,0.571,1.308c1.638,1.997,9.504,4.956,12.015,4.519
			C31.05,63.8,31.682,63.298,31.954,62.546z"/>
		<path d="M47.905,59.033c2.371-0.967,7.547-7.699,7.91-10.288c0.124-0.902-0.151-1.679-0.758-2.173
			c-0.397-0.306-0.704-0.426-10.09-3.577c0,0-4.118-1.392-4.172-1.418c-0.994-0.394-2.135-0.03-2.9,0.939
			c-0.791,0.99-0.915,2.292-0.281,3.284l1.659,2.757c5.574,9.26,5.998,9.915,6.401,10.235
			C46.294,59.291,47.083,59.373,47.905,59.033L47.905,59.033z"/>
		<path d="M43.057,35.198c10.669-2.642,11.08-2.784,11.502-3.067c0.646-0.443,0.97-1.189,0.914-2.097c0-0.03,0.005-0.057,0-0.091
			c-0.274-2.678-4.867-9.65-7.128-10.78c-0.8-0.394-1.603-0.367-2.264,0.087c-0.413,0.277-0.717,0.689-6.429,8.681
			c0,0-2.583,3.599-2.614,3.632c-0.681,0.844-0.688,2.061-0.025,3.1c0.688,1.076,1.853,1.602,2.92,1.298
			c0,0-0.044,0.077-0.056,0.092C40.402,35.849,41.344,35.614,43.057,35.198z"/>
		<path d="M32.343,26.186L32.343,26.186C32.16,21.862,30.89,2.602,30.74,1.708c-0.219-0.807-0.833-1.385-1.724-1.614
			c-2.72-0.692-13.129,2.293-15.061,4.33c-0.618,0.66-0.848,1.477-0.663,2.195c0.301,0.641,13.203,21.397,13.203,21.397
			c1.908,3.162,3.463,2.672,3.971,2.51C30.973,30.365,32.519,29.875,32.343,26.186z"/>
	</g>
</g>
<g id="vine">
</g>
<g id="vimeo">
</g>
<g id="viadeo">
</g>
<g id="twitter">
</g>
<g id="tumblr">
</g>
<g id="stumbleupon">
</g>
<g id="spotify">
</g>
<g id="soundcloud">
</g>
<g id="reddit">
</g>
<g id="rdio">
</g>
<g id="quora">
</g>
<g id="pinterest">
</g>
<g id="linkedin">
</g>
<g id="lastfm">
</g>
<g id="instagram">
</g>
<g id="google-plus">
</g>
<g id="github">
</g>
<g id="foursquare">
</g>
<g id="flickr">
</g>
<g id="facebook">
</g>
<g id="dribbble">
</g>
<g id="deviantart">
</g>
<g id="delicious">
</g>
<g id="blogger">
</g>
<g id="behance">
</g>
</svg>
