<?xml version="1.0" encoding="utf-8"?>
<!-- Generator: Adobe Illustrator 17.0.0, SVG Export Plug-In . SVG Version: 6.00 Build 0)  -->
<!DOCTYPE svg PUBLIC "-//W3C//DTD SVG 1.1//EN" "http://www.w3.org/Graphics/SVG/1.1/DTD/svg11.dtd">
<svg version="1.1" xmlns="http://www.w3.org/2000/svg" xmlns:xlink="http://www.w3.org/1999/xlink" x="0px" y="0px" width="64px"
	 height="64px" viewBox="0 0 64 64" enable-background="new 0 0 64 64" xml:space="preserve">
<g id="envato">
</g>
<g id="css3">
</g>
<g id="html5">
</g>
<g id="feed">
</g>
<g id="skype">
</g>
<g id="paypal">
</g>
<g id="evernote">
</g>
<g id="dropbox">
</g>
<g id="codepen">
</g>
<g id="jsfiddle">
</g>
<g id="medium">
</g>
<g id="squarespace">
</g>
<g id="joomla">
</g>
<g id="drupal">
</g>
<g id="wordpress">
</g>
<g id="linux">
</g>
<g id="windows">
</g>
<g id="apple">
</g>
<g id="android">
	<path d="M8.863,20.701c-2.181-0.001-3.949,1.77-3.95,3.95l0.003,16.541c0.001,2.187,1.769,3.951,3.951,3.951
		c2.183,0,3.951-1.765,3.949-3.951l0-16.544C12.815,22.47,11.044,20.7,8.863,20.701 M40.717,5.847l2.757-5.035
		c0.147-0.263,0.051-0.598-0.216-0.747c-0.269-0.142-0.601-0.046-0.743,0.219L39.73,5.372c-2.344-1.043-4.966-1.628-7.74-1.625
		c-2.767-0.002-5.388,0.58-7.722,1.617L21.48,0.291c-0.145-0.268-0.479-0.365-0.742-0.219c-0.268,0.144-0.366,0.48-0.218,0.743
		l2.758,5.031c-5.42,2.795-9.081,8.117-9.078,14.228l35.582-0.004C49.783,13.96,46.128,8.649,40.717,5.847 M23.897,13.627
		c-0.819-0.002-1.487-0.668-1.487-1.491c0-0.82,0.666-1.493,1.488-1.493c0.825-0.001,1.492,0.674,1.493,1.493
		C25.392,12.958,24.723,13.627,23.897,13.627 M40.098,13.624c-0.823,0.001-1.492-0.666-1.492-1.492
		c0.003-0.817,0.668-1.492,1.493-1.495c0.818,0.002,1.489,0.677,1.489,1.496C41.589,12.957,40.921,13.624,40.098,13.624
		 M14.346,21.447l0.006,25.635c-0.002,2.332,1.884,4.214,4.215,4.214l2.87,0.001l0.003,8.752C21.439,62.228,23.211,64,25.387,64
		c2.183,0,3.951-1.773,3.952-3.953l-0.002-8.751l5.333-0.001l0.002,8.752c-0.001,2.178,1.772,3.952,3.949,3.949
		c2.182,0.001,3.952-1.772,3.951-3.952l-0.002-8.75l2.88-0.002c2.325,0.001,4.216-1.884,4.217-4.216l-0.004-25.635L14.346,21.447z
		 M59.084,24.645c0-2.181-1.769-3.95-3.95-3.949c-2.181-0.002-3.949,1.77-3.949,3.951l0.003,16.542c0,2.184,1.767,3.949,3.95,3.949
		c2.181,0,3.948-1.766,3.949-3.951L59.084,24.645z"/>
</g>
<g id="youtube">
</g>
<g id="yelp">
</g>
<g id="vine">
</g>
<g id="vimeo">
</g>
<g id="viadeo">
</g>
<g id="twitter">
</g>
<g id="tumblr">
</g>
<g id="stumbleupon">
</g>
<g id="spotify">
</g>
<g id="soundcloud">
</g>
<g id="reddit">
</g>
<g id="rdio">
</g>
<g id="quora">
</g>
<g id="pinterest">
</g>
<g id="linkedin">
</g>
<g id="lastfm">
</g>
<g id="instagram">
</g>
<g id="google-plus">
</g>
<g id="github">
</g>
<g id="foursquare">
</g>
<g id="flickr">
</g>
<g id="facebook">
</g>
<g id="dribbble">
</g>
<g id="deviantart">
</g>
<g id="delicious">
</g>
<g id="blogger">
</g>
<g id="behance">
</g>
</svg>
