<svg xmlns="http://www.w3.org/2000/svg" width="64" height="64" viewBox="0 0 64 64"><path fill="#1A1A1A" d="M49.471,34.009c-0.081-8.107,6.611-11.996,6.909-12.192c-3.76-5.499-9.619-6.254-11.705-6.339 c-4.981-0.507-9.726,2.934-12.254,2.934c-2.522,0-6.427-2.861-10.558-2.788c-5.436,0.081-10.445,3.162-13.242,8.027 c-5.644,9.791-1.443,24.302,4.056,32.249c2.689,3.884,5.896,8.255,10.102,8.095c4.055-0.16,5.586-2.623,10.487-2.623 c4.901,0,6.278,2.623,10.567,2.541c4.36-0.079,7.124-3.959,9.792-7.858c3.086-4.512,4.357-8.881,4.432-9.103 C57.963,46.908,49.558,43.688,49.471,34.009z M41.412,10.219C43.643,7.51,45.154,3.746,44.744,0 c-3.22,0.131-7.118,2.141-9.429,4.846c-2.071,2.401-3.882,6.223-3.397,9.902C35.51,15.027,39.173,12.922,41.412,10.219z"/></svg>