<svg xmlns="http://www.w3.org/2000/svg" width="64" height="64" viewBox="0 0 64 64"><path d="M17.672,12.804c0.624,2.456,1.669,4.429,3.414,5.762c0.799,0.61,2.092,1.467,3.681,1.2c3.7-0.619,5.452-3.403,6.322-6.828 c1.373-5.413-1.163-11.096-4.775-12.59C25.67,0.081,24.941-0.01,24.02,0.001c-0.249,0.036-0.498,0.071-0.747,0.107 c-0.588,0.172-1.147,0.375-1.627,0.667c-2.374,1.441-3.536,4.047-4.161,7.255c-0.136,0.701-0.201,1.724-0.08,2.481 C17.539,11.351,17.483,12.06,17.672,12.804zM10.47,33.797c3.549-0.599,5.544-2.213,6.535-5.335c0.505-1.591,0.836-5.1,0.32-7.015 c-0.871-3.235-3.792-6.863-7.922-6.802c-0.293,0.036-0.587,0.071-0.88,0.107c-0.516,0.103-1.081,0.318-1.494,0.56 c-2.399,1.407-3.573,4.093-4.241,7.229c-0.956,4.487,1.12,8.577,3.734,10.296C7.393,33.409,8.83,34.074,10.47,33.797zM40.878,20.353c2.262,0.466,4.06-0.743,5.228-1.68c1.97-1.581,3.298-4.247,3.868-7.202 c0.754-3.909-2.023-7.653-4.134-9.016c-0.791-0.51-1.648-1.033-2.961-1.014c-0.231,0.027-0.462,0.053-0.693,0.08 C41.75,1.69,41.314,1.86,40.878,2.028c-2.425,1.402-4.445,3.892-5.361,6.775c-0.21,0.66-0.27,1.356-0.4,2.134 c-0.166,0.994-0.06,2.401,0.106,3.254C35.921,17.763,37.346,19.626,40.878,20.353zM51.414,43.08c-1.49-1.189-2.781-2.622-4.188-3.895c-0.955-0.864-1.967-1.824-2.774-2.827 c-1.077-1.34-2.312-2.587-3.281-4.028c-1.039-1.544-2.102-3.137-3.601-4.215c-1.734-1.247-3.491-2.184-6.562-2.134 c-0.612,0.241-1.355,0.167-1.947,0.347c-1.712,0.518-3.029,1.392-4.268,2.374c-1.295,1.026-2.032,2.576-2.987,3.948 c-0.802,1.152-1.83,2.101-2.694,3.174c-0.4,0.418-0.8,0.836-1.201,1.254c-1.255,1.01-2.344,2.259-3.601,3.254 c-2.829,2.242-4.814,3.764-6.668,7.042C5.065,51.93,7.404,58.733,10.39,61.138c1.023,0.824,2.27,1.526,3.734,1.894 c0.717,0.18,1.533,0.107,2.347,0.24h1.28c0.609,0.101,1.49,0.068,2.081-0.026c0.427-0.018,0.853-0.036,1.28-0.053 c1.26-0.211,2.512-0.184,3.708-0.427c1.372-0.278,2.71-0.508,4.135-0.774c0.578-0.036,1.156-0.071,1.734-0.107l1.68-0.027 c1.274,0.211,2.511,0.182,3.681,0.427c1.183,0.32,2.365,0.64,3.548,0.96c0.871,0.16,1.742,0.32,2.614,0.48 c3.512,0.685,7.703,0.03,9.923-1.307c1.085-0.654,2.007-1.508,2.721-2.534c1.773-2.549,2.861-7.827,1.307-11.416 C55.109,46.036,53.344,44.619,51.414,43.08z M29.648,58.15c0,0-3.509,0-5.335,0c-1.244,0-3.362,0.198-4.401-0.08 c-3.144-0.841-4.871-2.905-5.548-6.242c-0.167-0.822-0.263-1.994-0.107-2.934c0.109-0.657,0.185-1.183,0.4-1.707 c1.041-2.531,3.028-4.416,6.082-4.935c1.609-0.009,3.219-0.018,4.828-0.027c0.026-0.009,0.053-0.018,0.08-0.027 c0.018-1.929,0.036-3.859,0.053-5.788c0.044-0.026,0.089-0.053,0.133-0.08c1.254,0.018,3.826,0.053,3.826,0.053L29.648,58.15z M46.213,58.15L46.213,58.15c0,0-3.498,0-5.362,0c-3.066,0-5.877,0.311-7.442-1.227c-1.472-1.446-1.36-3.266-1.36-6.162 c0.009-2.702,0-8.162,0-8.162h4.135v8.562c0,0-0.107,2.121,0.294,2.694c0.576,0.825,1.987,0.667,3.387,0.667 c0.729-0.009,2.267-0.027,2.267-0.027V42.599h4.081V58.15zM18.605,48.414c-0.853,2.743,0.291,5.334,2.454,6.002c0.558,0.172,1.373,0.107,2.081,0.107c1.576-0.019,2.347,0,2.347,0 v-8.616c0,0-2.632-0.018-3.921-0.027C20.752,46.019,19.106,46.805,18.605,48.414zM61.124,25.715c-1.118-3.707-3.309-6.333-8.216-6.269c-0.302,0.036-0.604,0.071-0.907,0.107 c-0.409,0.115-0.818,0.231-1.227,0.347c-1.846,0.744-3,2.332-3.628,4.295c-0.327,1.023-0.367,2.143-0.56,3.334v2.907 c0.178,1.131,0.106,2.098,0.4,3.041c0.905,2.901,2.542,3.951,5.788,4.534c1.023,0.184,2.432,0.168,3.388-0.08 c2.963-0.771,4.3-2.744,4.988-5.788c0.195-0.86,0.057-1.73,0.213-2.694C61.555,28.272,61.404,26.644,61.124,25.715z"/></svg>