<?xml version="1.0" encoding="utf-8"?>
<!-- Generator: Adobe Illustrator 17.0.0, SVG Export Plug-In . SVG Version: 6.00 Build 0)  -->
<!DOCTYPE svg PUBLIC "-//W3C//DTD SVG 1.1//EN" "http://www.w3.org/Graphics/SVG/1.1/DTD/svg11.dtd">
<svg version="1.1" xmlns="http://www.w3.org/2000/svg" xmlns:xlink="http://www.w3.org/1999/xlink" x="0px" y="0px" width="64px"
	 height="64px" viewBox="0 0 64 64" enable-background="new 0 0 64 64" xml:space="preserve">
<g id="envato">
</g>
<g id="css3">
</g>
<g id="html5">
</g>
<g id="feed">
</g>
<g id="skype">
</g>
<g id="paypal">
</g>
<g id="evernote">
</g>
<g id="dropbox">
</g>
<g id="codepen">
</g>
<g id="jsfiddle">
</g>
<g id="medium">
</g>
<g id="squarespace">
</g>
<g id="joomla">
</g>
<g id="drupal">
</g>
<g id="wordpress">
</g>
<g id="linux">
</g>
<g id="windows">
</g>
<g id="apple">
</g>
<g id="android">
</g>
<g id="youtube">
</g>
<g id="yelp">
</g>
<g id="vine">
</g>
<g id="vimeo">
</g>
<g id="viadeo">
</g>
<g id="twitter">
</g>
<g id="tumblr">
</g>
<g id="stumbleupon">
</g>
<g id="spotify">
</g>
<g id="soundcloud">
</g>
<g id="reddit">
</g>
<g id="rdio">
</g>
<g id="quora">
</g>
<g id="pinterest">
</g>
<g id="linkedin">
</g>
<g id="lastfm">
</g>
<g id="instagram">
</g>
<g id="google-plus">
</g>
<g id="github">
</g>
<g id="foursquare">
</g>
<g id="flickr">
</g>
<g id="facebook">
</g>
<g id="dribbble">
</g>
<g id="deviantart">
</g>
<g id="delicious">
</g>
<g id="blogger">
</g>
<g id="behance">
	<g>
		<path d="M18.56,11.948c1.883,0,3.582,0.163,5.136,0.499c1.544,0.328,2.863,0.874,3.977,1.624c1.096,0.75,1.955,1.747,2.569,3.003
			c0.6,1.237,0.901,2.787,0.901,4.619c0,1.982-0.45,3.637-1.349,4.96c-0.906,1.321-2.238,2.405-4.017,3.247
			c2.423,0.696,4.217,1.923,5.407,3.666c1.196,1.756,1.781,3.856,1.781,6.319c0,1.996-0.382,3.715-1.146,5.16
			c-0.771,1.464-1.82,2.65-3.114,3.565c-1.304,0.923-2.801,1.601-4.479,2.042c-1.658,0.441-3.381,0.663-5.144,0.663H0V11.948H18.56z
			 M17.439,27.852c1.536,0,2.807-0.364,3.814-1.104c0.997-0.728,1.48-1.931,1.48-3.58c0-0.916-0.161-1.673-0.483-2.261
			c-0.334-0.588-0.777-1.047-1.336-1.369c-0.555-0.335-1.181-0.566-1.908-0.691c-0.714-0.139-1.463-0.194-2.229-0.194H8.668v9.199
			H17.439z M17.918,44.61c0.856,0,1.667-0.076,2.431-0.247c0.775-0.169,1.463-0.438,2.042-0.835c0.58-0.382,1.06-0.905,1.409-1.571
			c0.35-0.66,0.518-1.517,0.518-2.552c0-2.029-0.571-3.469-1.707-4.344c-1.137-0.863-2.654-1.292-4.52-1.292H8.668V44.61H17.918z"/>
		<path d="M45.32,44.479c1.172,1.145,2.867,1.721,5.063,1.721c1.579,0,2.944-0.399,4.089-1.195c1.134-0.795,1.825-1.645,2.092-2.527
			h6.895c-1.108,3.431-2.79,5.881-5.083,7.355c-2.267,1.481-5.032,2.219-8.254,2.219c-2.245,0-4.266-0.363-6.08-1.079
			c-1.813-0.725-3.328-1.741-4.603-3.065c-1.242-1.331-2.207-2.903-2.895-4.75c-0.68-1.837-1.023-3.872-1.023-6.076
			c0-2.131,0.356-4.123,1.053-5.963c0.711-1.847,1.693-3.44,2.985-4.776c1.295-1.344,2.831-2.404,4.619-3.179
			c1.788-0.772,3.76-1.16,5.944-1.16c2.411,0,4.524,0.464,6.334,1.409c1.804,0.932,3.283,2.196,4.445,3.777
			c1.162,1.579,1.988,3.385,2.505,5.41c0.512,2.022,0.692,4.134,0.544,6.346H43.381C43.381,41.2,44.143,43.334,45.32,44.479z
			 M54.315,29.503c-0.93-1.03-2.506-1.587-4.429-1.587c-1.251,0-2.286,0.21-3.115,0.639c-0.81,0.423-1.475,0.95-1.982,1.571
			c-0.505,0.631-0.85,1.296-1.05,2.008c-0.201,0.693-0.321,1.323-0.358,1.879H56.12C55.933,32.016,55.25,30.541,54.315,29.503z"/>
		<rect x="41.78" y="14.588" width="15.957" height="3.885"/>
	</g>
</g>
</svg>
