<svg xmlns="http://www.w3.org/2000/svg" width="64" height="64" viewBox="0 0 64 64"><path fill="#040000" d="M63.803,25.954l-0.537-1.104l-0.908-0.686c-1.188-0.925-7.188,0.112-8.807-1.349 c-1.145-1.053-1.318-2.85-1.668-5.406c-0.643-4.967-1.055-5.028-1.832-6.706C47.221,4.727,39.557,0,34.289,0H20.018 C8.791,0,0,8.378,0,19.557v23.714C0,54.43,8.791,64,20.018,64h23.447c11.227,0,20.338-9.352,20.402-20.509L64,26.852L63.803,25.954 z M20.275,16.41H31.59c2.16,0,3.908,1.963,3.908,4.093c0,2.128-1.748,4.112-3.908,4.112H20.275c-2.158,0-3.908-1.984-3.908-4.112 C16.367,18.373,18.117,16.41,20.275,16.41z M43.271,47.59H20.275c-2.158,0-3.908-1.995-3.908-4.103c0-2.13,1.75-4.104,3.908-4.104 h22.997c2.137,0,3.883,1.974,3.883,4.104C47.154,45.595,45.408,47.59,43.271,47.59z"/></svg>