<svg xmlns="http://www.w3.org/2000/svg" width="64" height="64" viewBox="0 0 64 64"><path fill="#231815" d="M63.975,21.891c-0.005-0.04-0.015-0.079-0.022-0.119c-0.014-0.078-0.028-0.155-0.048-0.231 c-0.013-0.045-0.029-0.089-0.043-0.134c-0.022-0.067-0.044-0.135-0.071-0.2c-0.019-0.045-0.04-0.09-0.061-0.134 c-0.029-0.062-0.06-0.123-0.094-0.183c-0.024-0.044-0.051-0.085-0.078-0.127c-0.037-0.057-0.075-0.113-0.116-0.167 c-0.03-0.04-0.061-0.079-0.094-0.118c-0.043-0.052-0.089-0.101-0.136-0.149c-0.036-0.037-0.072-0.073-0.11-0.107 c-0.05-0.045-0.102-0.088-0.156-0.13c-0.041-0.032-0.082-0.064-0.125-0.094c-0.015-0.011-0.029-0.024-0.045-0.034l-29.25-19.5 c-0.923-0.616-2.127-0.616-3.05,0l-29.25,19.5c-0.016,0.011-0.029,0.024-0.045,0.034c-0.043,0.03-0.083,0.062-0.125,0.094 c-0.053,0.042-0.106,0.085-0.156,0.13c-0.038,0.034-0.074,0.071-0.109,0.107c-0.048,0.048-0.093,0.098-0.137,0.149 c-0.033,0.039-0.064,0.078-0.094,0.118c-0.041,0.054-0.079,0.11-0.116,0.167c-0.027,0.042-0.054,0.084-0.078,0.127 c-0.034,0.059-0.065,0.12-0.093,0.183c-0.021,0.044-0.043,0.088-0.061,0.134c-0.027,0.066-0.05,0.133-0.072,0.2 c-0.014,0.045-0.03,0.088-0.042,0.134c-0.02,0.076-0.035,0.153-0.048,0.231c-0.008,0.04-0.017,0.079-0.023,0.119 C0.01,22.009,0,22.129,0,22.25V41.75c0,0.121,0.009,0.241,0.024,0.359c0.006,0.04,0.015,0.079,0.023,0.119 c0.013,0.077,0.028,0.155,0.048,0.231c0.012,0.045,0.028,0.089,0.042,0.134c0.022,0.067,0.045,0.135,0.072,0.201 c0.019,0.045,0.04,0.089,0.061,0.133c0.029,0.062,0.059,0.123,0.093,0.183c0.024,0.043,0.051,0.085,0.078,0.126 c0.037,0.057,0.075,0.113,0.116,0.168c0.03,0.041,0.061,0.08,0.094,0.119c0.044,0.051,0.089,0.101,0.137,0.149 c0.035,0.036,0.072,0.073,0.109,0.107c0.05,0.046,0.103,0.089,0.156,0.131c0.041,0.032,0.082,0.064,0.125,0.094 c0.016,0.011,0.029,0.024,0.045,0.034l29.25,19.5C30.937,63.845,31.468,64,32,64c0.532,0,1.064-0.155,1.525-0.463l29.25-19.5 c0.016-0.01,0.03-0.023,0.045-0.034c0.043-0.03,0.083-0.062,0.125-0.094c0.054-0.042,0.106-0.086,0.156-0.131 c0.038-0.034,0.074-0.071,0.11-0.107c0.047-0.048,0.093-0.098,0.136-0.149c0.033-0.039,0.064-0.077,0.094-0.119 c0.041-0.055,0.079-0.11,0.116-0.168c0.027-0.041,0.054-0.083,0.078-0.126c0.035-0.061,0.065-0.121,0.094-0.183 c0.021-0.044,0.042-0.088,0.061-0.133c0.027-0.066,0.049-0.134,0.071-0.201c0.014-0.045,0.03-0.088,0.043-0.134 c0.02-0.076,0.034-0.153,0.048-0.231c0.007-0.04,0.017-0.078,0.022-0.119C63.99,41.99,64,41.871,64,41.75V22.25 C64,22.129,63.99,22.009,63.975,21.891z M34.75,7.889l21.549,14.365l-9.625,6.438L34.75,20.717V7.889z M29.25,7.889v12.828 l-11.923,7.974l-9.624-6.438L29.25,7.889z M5.501,27.398L12.381,32l-6.88,4.602V27.398z M29.25,56.111L7.703,41.746l9.624-6.437 l11.923,7.974V56.111z M32,38.506L22.274,32L32,25.494L41.727,32L32,38.506z M34.75,56.111V43.283l11.923-7.974l9.625,6.437 L34.75,56.111z M58.5,36.602L51.619,32l6.881-4.602V36.602z"/></svg>