<?xml version="1.0" encoding="utf-8"?>
<!-- Generator: Adobe Illustrator 17.0.0, SVG Export Plug-In . SVG Version: 6.00 Build 0)  -->
<!DOCTYPE svg PUBLIC "-//W3C//DTD SVG 1.1//EN" "http://www.w3.org/Graphics/SVG/1.1/DTD/svg11.dtd">
<svg version="1.1" xmlns="http://www.w3.org/2000/svg" xmlns:xlink="http://www.w3.org/1999/xlink" x="0px" y="0px" width="64px"
	 height="64px" viewBox="0 0 64 64" enable-background="new 0 0 64 64" xml:space="preserve">
<g id="envato">
</g>
<g id="css3">
</g>
<g id="html5">
</g>
<g id="feed">
</g>
<g id="skype">
</g>
<g id="paypal">
</g>
<g id="evernote">
</g>
<g id="dropbox">
</g>
<g id="codepen">
</g>
<g id="jsfiddle">
</g>
<g id="medium">
</g>
<g id="squarespace">
</g>
<g id="joomla">
</g>
<g id="drupal">
</g>
<g id="wordpress">
</g>
<g id="linux">
</g>
<g id="windows">
</g>
<g id="apple">
</g>
<g id="android">
</g>
<g id="youtube">
</g>
<g id="yelp">
</g>
<g id="vine">
</g>
<g id="vimeo">
</g>
<g id="viadeo">
</g>
<g id="twitter">
</g>
<g id="tumblr">
</g>
<g id="stumbleupon">
</g>
<g id="spotify">
</g>
<g id="soundcloud">
</g>
<g id="reddit">
</g>
<g id="rdio">
</g>
<g id="quora">
</g>
<g id="pinterest">
</g>
<g id="linkedin">
</g>
<g id="lastfm">
</g>
<g id="instagram">
</g>
<g id="google-plus">
</g>
<g id="github">
</g>
<g id="foursquare">
</g>
<g id="flickr">
</g>
<g id="facebook">
</g>
<g id="dribbble">
</g>
<g id="deviantart">
	<path d="M35.115,25.413c-2.44-0.143-5.255,0.003-8.516,0.559l6.69,13.674L64,31.323c-0.322-0.766-0.793-1.514-1.416-2.237
		c-3.092-3.58-9.796-6.773-17.1-8.214V20.87c-7.165-1.68-14.925-1.609-22.872-0.409c-0.287,0.043-0.335-0.03-0.618,0.018
		l-2.167-4.656l-8.294-0.07l2.872,6.806c-4.11,1.592-7.483,3.86-9.916,6.59C0.476,33.715-1.11,39.457,0.817,45.047
		c0.388,1.128,0.912,2.197,1.558,3.2l29.247-8.051l-7.665-15.521c0.285-0.055,0.575-0.11,0.87-0.164
		c16.377-3.301,24.466,3.742,24.095,5.108c-0.172,0.634-10.372,2.727-10.372,2.727l-3.343-6.934L35.115,25.413z M11.394,38.768
		c-1.481-0.661-1.522-8.357,5.175-11.681l4.571,9.559C21.14,36.646,12.024,39.05,11.394,38.768z"/>
</g>
<g id="delicious">
</g>
<g id="blogger">
</g>
<g id="behance">
</g>
</svg>
