<svg xmlns="http://www.w3.org/2000/svg" width="64" height="64" viewBox="0 0 64 64"><path fill="#040000" d="M35.115,25.413c-2.44-0.143-5.255,0.003-8.516,0.559l6.69,13.674L64,31.323 c-0.322-0.766-0.793-1.514-1.416-2.237c-3.092-3.58-9.796-6.773-17.1-8.214V20.87c-7.165-1.68-14.925-1.609-22.872-0.409 c-0.287,0.043-0.335-0.03-0.618,0.018l-2.167-4.656l-8.294-0.07l2.872,6.806c-4.11,1.592-7.483,3.86-9.916,6.59 C0.476,33.715-1.11,39.457,0.817,45.047c0.388,1.128,0.912,2.197,1.558,3.2l29.247-8.051l-7.665-15.521 c0.285-0.055,0.575-0.11,0.87-0.164c16.377-3.301,24.466,3.742,24.095,5.108c-0.172,0.634-10.372,2.727-10.372,2.727l-3.343-6.934 L35.115,25.413z M11.394,38.768c-1.481-0.661-1.522-8.357,5.175-11.681l4.571,9.559C21.14,36.646,12.024,39.05,11.394,38.768z"/></svg>