<svg xmlns="http://www.w3.org/2000/svg" width="64" height="64" viewBox="0 0 64 64"><g><path fill-rule="evenodd" clip-rule="evenodd" fill="#040000" d="M32,0C14.355,0,0,14.355,0,32s14.355,32,32,32s32-14.355,32-32 S49.645,0,32,0z M53.157,14.757c3.807,4.651,6.112,10.575,6.172,17.027c-0.901-0.191-9.938-2.023-19.032-0.88 c-0.192-0.468-0.388-0.938-0.589-1.411c-0.568-1.333-1.177-2.657-1.813-3.959C48.001,21.408,52.581,15.536,53.157,14.757z M32,4.709c6.945,0,13.292,2.605,18.119,6.888c-0.492,0.7-4.606,6.23-14.325,9.873C31.315,13.24,26.35,6.48,25.595,5.469 C27.65,4.973,29.795,4.709,32,4.709z M20.38,7.306c0.721,0.988,5.605,7.757,10.134,15.808 c-12.785,3.395-24.046,3.346-25.269,3.33C7.017,17.962,12.733,10.913,20.38,7.306z M4.667,32.042 c0-0.279,0.006-0.558,0.014-0.835c1.196,0.025,14.441,0.195,28.091-3.89c0.783,1.531,1.53,3.086,2.216,4.639 c-0.362,0.102-0.721,0.21-1.077,0.325c-14.097,4.557-21.598,16.977-22.217,18.037C7.328,45.472,4.667,39.062,4.667,32.042z M32,59.375c-6.319,0-12.143-2.156-16.777-5.77c0.492-1.006,6.026-11.697,21.443-17.069c0.06-0.021,0.12-0.04,0.18-0.061 c3.837,9.972,5.424,18.329,5.831,20.728C39.395,58.6,35.786,59.375,32,59.375z M47.272,54.7c-0.28-1.663-1.735-9.664-5.31-19.488 c8.565-1.371,16.09,0.873,17.025,1.168C57.769,43.986,53.404,50.554,47.272,54.7z"/></g></svg>