<?xml version="1.0" encoding="utf-8"?>
<!-- Generator: Adobe Illustrator 17.0.0, SVG Export Plug-In . SVG Version: 6.00 Build 0)  -->
<!DOCTYPE svg PUBLIC "-//W3C//DTD SVG 1.1//EN" "http://www.w3.org/Graphics/SVG/1.1/DTD/svg11.dtd">
<svg version="1.1" xmlns="http://www.w3.org/2000/svg" xmlns:xlink="http://www.w3.org/1999/xlink" x="0px" y="0px" width="64px"
	 height="64px" viewBox="0 0 64 64" enable-background="new 0 0 64 64" xml:space="preserve">
<g id="envato">
</g>
<g id="css3">
</g>
<g id="html5">
</g>
<g id="feed">
</g>
<g id="skype">
</g>
<g id="paypal">
</g>
<g id="evernote">
</g>
<g id="dropbox">
</g>
<g id="codepen">
</g>
<g id="jsfiddle">
</g>
<g id="medium">
</g>
<g id="squarespace">
</g>
<g id="joomla">
</g>
<g id="drupal">
	<path d="M45.935,11.9c-3.268-2.035-6.351-2.836-9.434-4.871C34.59,5.734,31.938,2.651,29.719,0
		c-0.431,4.254-1.726,5.981-3.206,7.214c-3.145,2.467-5.118,3.206-7.831,4.686c-2.281,1.172-14.674,8.57-14.674,24.478
		S17.387,64,32.247,64c14.859,0,27.746-10.79,27.746-27.129C59.992,20.532,47.908,13.133,45.935,11.9z M46.291,58.197
		c-0.308,0.308-3.144,2.281-6.474,2.59c-3.33,0.308-7.83,0.493-10.543-1.973c-0.431-0.432-0.308-1.048,0-1.295
		c0.308-0.247,0.555-0.431,0.925-0.431c0.37,0,0.308,0,0.493,0.123c1.233,0.987,3.083,1.788,7.029,1.788s6.721-1.11,7.954-2.035
		c0.555-0.431,0.801-0.061,0.863,0.185C46.599,57.396,46.722,57.766,46.291,58.197z M35.501,52.587
		c0.678-0.617,1.788-1.603,2.836-2.035c1.048-0.431,1.603-0.37,2.59-0.37c0.986,0,2.034,0.062,2.774,0.555
		c0.74,0.493,1.171,1.603,1.418,2.22c0.247,0.617,0,0.986-0.493,1.233c-0.432,0.247-0.493,0.124-0.925-0.678
		c-0.432-0.802-0.801-1.603-2.96-1.603c-2.158,0-2.836,0.74-3.884,1.603c-1.048,0.863-1.418,1.172-1.788,0.678
		C34.699,53.696,34.823,53.203,35.501,52.587z M51.84,53.08c-2.22-0.185-6.659-7.091-9.495-7.214
		c-3.576-0.124-11.345,7.46-17.449,7.46c-3.699,0-4.809-0.555-6.043-1.356c-1.85-1.295-2.774-3.268-2.713-5.981
		c0.062-4.809,4.562-9.31,10.235-9.372c7.214-0.061,12.208,7.152,15.846,7.091c3.083-0.061,9.002-6.104,11.9-6.104
		c3.083,0,3.946,3.206,3.946,5.117c0,1.911-0.617,5.364-2.096,7.522C54.491,52.402,53.566,53.203,51.84,53.08z"/>
</g>
<g id="wordpress">
</g>
<g id="linux">
</g>
<g id="windows">
</g>
<g id="apple">
</g>
<g id="android">
</g>
<g id="youtube">
</g>
<g id="yelp">
</g>
<g id="vine">
</g>
<g id="vimeo">
</g>
<g id="viadeo">
</g>
<g id="twitter">
</g>
<g id="tumblr">
</g>
<g id="stumbleupon">
</g>
<g id="spotify">
</g>
<g id="soundcloud">
</g>
<g id="reddit">
</g>
<g id="rdio">
</g>
<g id="quora">
</g>
<g id="pinterest">
</g>
<g id="linkedin">
</g>
<g id="lastfm">
</g>
<g id="instagram">
</g>
<g id="google-plus">
</g>
<g id="github">
</g>
<g id="foursquare">
</g>
<g id="flickr">
</g>
<g id="facebook">
</g>
<g id="dribbble">
</g>
<g id="deviantart">
</g>
<g id="delicious">
</g>
<g id="blogger">
</g>
<g id="behance">
</g>
</svg>
