<?xml version="1.0" encoding="utf-8"?>
<!-- Generator: Adobe Illustrator 17.0.0, SVG Export Plug-In . SVG Version: 6.00 Build 0)  -->
<!DOCTYPE svg PUBLIC "-//W3C//DTD SVG 1.1//EN" "http://www.w3.org/Graphics/SVG/1.1/DTD/svg11.dtd">
<svg version="1.1" xmlns="http://www.w3.org/2000/svg" xmlns:xlink="http://www.w3.org/1999/xlink" x="0px" y="0px" width="64px"
	 height="64px" viewBox="0 0 64 64" enable-background="new 0 0 64 64" xml:space="preserve">
<g id="envato">
</g>
<g id="css3">
</g>
<g id="html5">
</g>
<g id="feed">
</g>
<g id="skype">
</g>
<g id="paypal">
</g>
<g id="evernote">
	<path d="M10.575,12.396c0,0,0,0,0.003,0h6.007c0.344-0.001,0.622-0.28,0.622-0.622c0-0.002-0.073-5.151-0.073-6.582V5.175
		c0-1.175,0.247-2.2,0.677-3.06l0.205-0.385c-0.023,0.003-0.045,0.014-0.069,0.037L6.277,13.341
		c-0.023,0.018-0.037,0.042-0.043,0.068c0.241-0.119,0.572-0.283,0.618-0.303C7.867,12.647,9.099,12.396,10.575,12.396z
		 M57.313,11.135c-0.477-2.554-1.995-3.812-3.37-4.308c-1.479-0.535-4.484-1.09-8.257-1.534c-3.035-0.358-6.604-0.329-8.759-0.263
		c-0.259-1.772-1.502-3.391-2.894-3.951c-3.704-1.491-9.429-1.13-10.899-0.719c-1.168,0.327-2.461,0.995-3.181,2.026
		c-0.482,0.689-0.795,1.571-0.797,2.804c0,0.697,0.019,2.34,0.037,3.801c0.017,1.464,0.038,2.774,0.038,2.783
		c-0.001,1.304-1.058,2.365-2.367,2.366h-6.008c-1.281,0-2.26,0.215-3.009,0.555c-0.749,0.34-1.28,0.799-1.682,1.341
		c-0.802,1.078-0.942,2.406-0.938,3.764c0,0,0.012,1.108,0.278,3.253c0.222,1.66,2.023,13.257,3.733,16.784
		c0.663,1.371,1.105,1.944,2.407,2.549c2.902,1.243,9.531,2.625,12.638,3.021c3.101,0.397,5.047,1.23,6.207-1.201
		c0.003-0.007,0.233-0.604,0.546-1.485c1.008-3.051,1.148-5.758,1.148-7.718c0-0.199,0.292-0.208,0.292,0
		c0,1.383-0.264,6.279,3.433,7.591c1.461,0.517,4.488,0.979,7.566,1.34c2.781,0.321,4.801,1.414,4.801,8.553
		c0,4.343-0.912,4.938-5.68,4.938c-3.865,0-5.339,0.099-5.339-2.97c0-2.483,2.456-2.222,4.274-2.222
		c0.813,0,0.223-0.604,0.223-2.135c0-1.524,0.953-2.405,0.051-2.427c-6.292-0.174-9.993-0.007-9.993,7.861
		c0,7.142,2.733,8.469,11.663,8.469c7.001,0,9.466-0.229,12.358-9.198c0.573-1.771,1.956-7.174,2.794-16.247
		C59.157,32.819,58.128,15.505,57.313,11.135z M45.109,30.273c-0.866-0.03-1.697,0.024-2.473,0.149
		c0.219-1.763,0.947-3.927,3.524-3.837c2.854,0.099,3.255,2.796,3.264,4.623C48.222,30.672,46.732,30.329,45.109,30.273z"/>
</g>
<g id="dropbox">
</g>
<g id="codepen">
</g>
<g id="jsfiddle">
</g>
<g id="medium">
</g>
<g id="squarespace">
</g>
<g id="joomla">
</g>
<g id="drupal">
</g>
<g id="wordpress">
</g>
<g id="linux">
</g>
<g id="windows">
</g>
<g id="apple">
</g>
<g id="android">
</g>
<g id="youtube">
</g>
<g id="yelp">
</g>
<g id="vine">
</g>
<g id="vimeo">
</g>
<g id="viadeo">
</g>
<g id="twitter">
</g>
<g id="tumblr">
</g>
<g id="stumbleupon">
</g>
<g id="spotify">
</g>
<g id="soundcloud">
</g>
<g id="reddit">
</g>
<g id="rdio">
</g>
<g id="quora">
</g>
<g id="pinterest">
</g>
<g id="linkedin">
</g>
<g id="lastfm">
</g>
<g id="instagram">
</g>
<g id="google-plus">
</g>
<g id="github">
</g>
<g id="foursquare">
</g>
<g id="flickr">
</g>
<g id="facebook">
</g>
<g id="dribbble">
</g>
<g id="deviantart">
</g>
<g id="delicious">
</g>
<g id="blogger">
</g>
<g id="behance">
</g>
</svg>
