<svg xmlns="http://www.w3.org/2000/svg" width="64" height="64" viewBox="0 0 64 64"><path d="M10.575,12.396c0,0,0,0,0.003,0h6.007c0.344-0.001,0.621-0.28,0.622-0.622 c0-0.002-0.073-5.151-0.073-6.582V5.175c0-1.175,0.246-2.2,0.677-3.06l0.205-0.385c-0.022,0.003-0.045,0.014-0.069,0.037 L6.277,13.342c-0.023,0.018-0.037,0.042-0.043,0.068c0.241-0.119,0.572-0.283,0.618-0.303 C7.867,12.647,9.099,12.396,10.575,12.396zM57.313,11.135c-0.477-2.554-1.995-3.812-3.37-4.308c-1.479-0.535-4.484-1.09-8.257-1.534 c-3.035-0.358-6.604-0.329-8.759-0.263c-0.259-1.772-1.502-3.391-2.894-3.951c-3.704-1.491-9.429-1.13-10.899-0.719 c-1.169,0.327-2.461,0.995-3.181,2.026c-0.482,0.689-0.795,1.571-0.797,2.804c0,0.697,0.019,2.34,0.037,3.801 c0.017,1.464,0.038,2.774,0.038,2.783c-0.001,1.304-1.058,2.365-2.367,2.366h-6.008c-1.281,0-2.26,0.215-3.009,0.555 c-0.749,0.34-1.28,0.799-1.682,1.341c-0.802,1.078-0.942,2.406-0.938,3.764c0,0,0.012,1.108,0.278,3.253 c0.222,1.66,2.023,13.257,3.733,16.784c0.663,1.371,1.105,1.944,2.407,2.549c2.902,1.243,9.531,2.625,12.638,3.021 c3.101,0.397,5.047,1.23,6.207-1.201c0.003-0.007,0.233-0.604,0.546-1.485c1.008-3.051,1.148-5.758,1.148-7.718 c0-0.199,0.292-0.208,0.292,0c0,1.383-0.264,6.279,3.433,7.591c1.461,0.517,4.488,0.979,7.566,1.34 c2.781,0.321,4.801,1.414,4.801,8.553c0,4.343-0.912,4.938-5.68,4.938c-3.865,0-5.339,0.099-5.339-2.97 c0-2.483,2.456-2.222,4.274-2.222c0.813,0,0.223-0.604,0.223-2.135c0-1.524,0.953-2.405,0.051-2.427 c-6.292-0.174-9.993-0.007-9.993,7.861c0,7.142,2.733,8.469,11.663,8.469c7.001,0,9.466-0.229,12.357-9.198 c0.573-1.771,1.956-7.174,2.794-16.247C59.157,32.819,58.128,15.505,57.313,11.135z M45.109,30.273 c-0.866-0.03-1.697,0.024-2.473,0.149c0.219-1.763,0.947-3.927,3.524-3.837c2.854,0.099,3.255,2.796,3.264,4.623 C48.222,30.672,46.732,30.329,45.109,30.273z" fill="#040000"/></svg>