<svg xmlns="http://www.w3.org/2000/svg" width="64" height="64" viewBox="0 0 64 64"><g><path fill="#040000" d="M61.51,26.577L35.82,52.278c-1.11,1.099-2.577,1.703-4.14,1.703l-1.14-0.002l-0.24-0.161 c-1.046-0.249-2.015-0.788-2.78-1.557L10.618,35.325C9.51,34.22,8.9,32.75,8.901,31.186c0-1.565,0.611-3.037,1.718-4.141 l5.001-4.997c1.086-1.08,2.589-1.702,4.137-1.705c1.543,0,3.052,0.629,4.135,1.719l7.793,7.807l16.556-16.562L37.215,2.281 c-2.919-2.918-7.694-2.918-10.613,0L2.189,26.693c-2.919,2.918-2.919,7.695,0,10.613l24.413,24.413 c2.919,2.918,7.694,2.918,10.613,0l24.412-24.413c2.919-2.918,2.919-7.694,0-10.613L61.51,26.577zM63.385,16.299l-4.987-4.994c-0.401-0.399-0.923-0.619-1.486-0.616c-0.562-0.002-1.089,0.218-1.488,0.614 L31.556,35.179L21.11,24.713c-0.391-0.393-0.929-0.619-1.485-0.617c-0.552,0.002-1.093,0.223-1.486,0.613l-4.995,4.99 c-0.822,0.82-0.825,2.149-0.002,2.97L30.05,49.612c0.339,0.339,0.778,0.55,1.246,0.601c0.079,0.011,0.16,0.015,0.24,0.015 c0.005,0,0.01,0,0.015-0.001l0.002,0.001c0.564,0.001,1.1-0.221,1.5-0.618l30.33-30.343 C64.205,18.449,64.205,17.121,63.385,16.299z"/></g></svg>