<svg xmlns="http://www.w3.org/2000/svg" width="64" height="64" viewBox="0 0 64 64"><path fill-rule="evenodd" clip-rule="evenodd" fill="#181313" d="M31.998,0.79C14.328,0.79,0,15.117,0,32.792 c0,14.137,9.168,26.131,21.885,30.363c1.6,0.293,2.184-0.694,2.184-1.542c0-0.76-0.028-2.772-0.043-5.443 c-8.901,1.934-10.78-4.29-10.78-4.29c-1.455-3.697-3.553-4.681-3.553-4.681c-2.905-1.985,0.22-1.945,0.22-1.945 c3.211,0.226,4.901,3.298,4.901,3.298c2.855,4.89,7.489,3.478,9.313,2.659c0.291-2.068,1.117-3.478,2.032-4.278 c-7.106-0.808-14.576-3.553-14.576-15.815c0-3.493,1.247-6.35,3.294-8.587c-0.329-0.81-1.427-4.063,0.314-8.469 c0,0,2.687-0.86,8.8,3.28c2.552-0.71,5.29-1.065,8.011-1.077c2.717,0.012,5.455,0.367,8.011,1.077 c6.109-4.141,8.791-3.28,8.791-3.28c1.746,4.406,0.647,7.659,0.318,8.469c2.051,2.237,3.289,5.093,3.289,8.587 c0,12.293-7.482,14.998-14.611,15.79c1.149,0.988,2.172,2.941,2.172,5.926c0,4.278-0.039,7.729-0.039,8.779 c0,0.856,0.576,1.851,2.2,1.539C54.84,58.911,64,46.925,64,32.792C64,15.117,49.671,0.79,31.998,0.79z"/></svg>