<svg xmlns="http://www.w3.org/2000/svg" width="64" height="64" viewBox="0 0 64 64"><path d="M38.849,1H22.857c-2.122,0-4.396,0.575-6.821,1.071 c-2.451,0.575-4.813,1.965-7.086,3.844c-3.31,3.212-4.964,6.869-4.964,10.811c0,3.263,1.168,6.162,3.504,8.616 c2.232,2.637,5.476,4.002,9.733,4.054c0.804,0,1.66-0.042,2.569-0.146c-0.15,0.42-0.313,0.884-0.489,1.383 c-0.201,0.472-0.301,1.066-0.301,1.774c0,1.182,0.263,2.194,0.789,3.034c0.451,0.866,0.965,1.681,1.541,2.442 c-1.866,0.052-4.21,0.286-7.033,0.704c-2.85,0.495-5.57,1.485-8.16,2.971c-2.306,1.38-3.899,2.983-4.779,4.807 C0.453,48.189,0,49.843,0,51.329c0,3.049,1.394,5.668,4.182,7.857c2.762,2.345,6.944,3.544,12.544,3.596 c6.69-0.104,11.81-1.71,15.358-4.817c3.421-3.003,5.132-6.449,5.132-10.339c-0.049-2.741-0.672-4.961-1.87-6.658 c-1.271-1.671-2.749-3.198-4.435-4.582l-2.712-2.232c-0.391-0.392-0.795-0.848-1.21-1.371c-0.489-0.548-0.733-1.24-0.733-2.075 c0-0.862,0.238-1.619,0.715-2.272c0.405-0.627,0.845-1.188,1.322-1.684c0.834-0.731,1.62-1.449,2.358-2.154 c0.667-0.705,1.298-1.475,1.894-2.311c1.215-1.723,1.846-4.02,1.894-6.892c0-1.567-0.176-2.937-0.527-4.112 c-0.427-1.175-0.916-2.193-1.469-3.054c-0.578-0.914-1.168-1.958-1.77-2.585C30.046,5.044,29.481,5,28.979,4h4.931L38.849,1z M30.082,45.438c1.324,1.514,1.986,3.29,1.986,5.327c0,2.506-0.968,4.556-2.903,6.15c-1.986,1.619-4.863,2.454-8.631,2.507 c-4.201-0.053-7.511-0.993-9.929-2.82c-2.546-1.828-3.819-4.152-3.819-6.972c0-1.437,0.292-2.664,0.878-3.682 c0.509-0.966,1.133-1.776,1.871-2.428c0.764-0.626,1.514-1.11,2.253-1.449c0.738-0.314,1.311-0.549,1.719-0.706 c1.731-0.522,3.424-0.901,5.079-1.135c1.68-0.157,2.724-0.209,3.132-0.157c0.687,0,1.285,0.026,1.795,0.078 C26.492,42.239,28.682,44.001,30.082,45.438z M27.487,21.815c-0.193,1.073-0.628,2.119-1.305,3.139 c-1.404,1.439-3.157,2.198-5.262,2.276c-1.666,0-3.147-0.509-4.443-1.53c-1.296-1.02-2.354-2.262-3.173-3.728 c-1.693-3.139-2.539-6.161-2.539-9.065c-0.052-2.197,0.527-4.185,1.739-5.964c1.436-1.7,3.238-2.577,5.405-2.629 c1.638,0.052,3.087,0.537,4.347,1.452c1.235,0.968,2.23,2.224,2.986,3.767c1.613,3.218,2.419,6.41,2.419,9.575 C27.661,19.84,27.602,20.743,27.487,21.815zM64 26L64 26 64 26 55 26 55 18 50 18 50 26 42 26 42 31 42 31 42 31 50 31 50 40 55 40 55 31 64 31z" fill-rule="evenodd" clip-rule="evenodd" fill="#040000"/></svg>