<svg xmlns="http://www.w3.org/2000/svg" width="64" height="64" viewBox="0 0 64 64"><path d="M9.329,12.577l4.126,46.282L31.972,64l18.568-5.148l4.131-46.275H9.329z M46.064,23.561l-0.259,2.878 l-0.114,1.276H31.98v0h-8.01l0.519,5.813h7.492H32h13.175l-0.138,1.524l-1.334,14.944l-0.085,0.959L32,54.174v0.001l-0.026,0.007 l-11.628-3.228l-0.795-8.913h5.698l0.404,4.527l6.322,1.707l0.005-0.001v0l6.331-1.709l0.659-7.362h-6.99v0H19.297l-1.395-15.642 l-0.136-1.523H31.98v0h14.219L46.064,23.561zM50.532 5.778L46.475 5.778 46.475 0 43.59 0 43.59 8.63 50.532 8.63zM16.432 5.74L19.071 5.74 19.071 8.63 21.956 8.63 21.956 0 19.071 0 19.071 2.85 16.432 2.85 16.432 0 13.548 0 13.548 8.63 16.432 8.63zM25.749 8.63L28.634 8.63 28.634 2.862 31.175 2.862 31.175 0 23.21 0 23.21 2.862 25.749 2.862zM35.261 4.353L37.247 7.421 37.297 7.421 39.281 4.353 39.281 8.63 42.154 8.63 42.154 0 39.145 0 37.297 3.033 35.447 0 32.439 0 32.439 8.63 35.261 8.63z" fill="#040000"/></svg>