<svg xmlns="http://www.w3.org/2000/svg" width="64" height="64" viewBox="0 0 64 64"><path fill-rule="evenodd" clip-rule="evenodd" fill="#040000" d="M56.521,0H7.371C3.3,0,0,3.3,0,7.37v49.146 C0,60.589,3.3,64,7.371,64h49.15C60.591,64,64,60.589,64,56.516V7.37C64,3.3,60.591,0,56.521,0z M31.945,19.658 c6.786,0,12.288,5.5,12.288,12.286c0,6.785-5.502,12.288-12.288,12.288c-6.786,0-12.287-5.503-12.287-12.288 C19.659,25.158,25.159,19.658,31.945,19.658z M57,54.061C57,55.416,55.42,57,54.061,57H9.831C8.471,57,7,55.416,7,54.061V27h5.933 c-0.405,2-0.646,3.231-0.646,4.93c0,10.859,8.801,19.666,19.658,19.666c10.857,0,19.658-8.811,19.658-19.67 c0-1.699-0.239-2.927-0.645-4.927H57V54.061z M57,17.201C57,18.557,55.42,20,54.061,20h-7.37C45.333,20,44,18.557,44,17.201V9.827 C44,8.471,45.333,7,46.69,7h7.37C55.42,7,57,8.471,57,9.827V17.201z"/></svg>