<svg xmlns="http://www.w3.org/2000/svg" width="64" height="64" viewBox="0 0 64 64"><g fill="#040000"><path d="M18.6,25.223l6.318,6.323l6.682-6.688l6.32-6.323l1.23-1.23c2.061-2.06,5.375-2.057,7.418-0.011 c2.05,2.052,2.05,5.381-0.002,7.433l-0.486,0.491l6.312,6.328l0.49-0.496c3.779-3.788,4.979-9.173,3.604-13.978 c4.198-0.551,7.433-4.146,7.433-8.5C63.919,3.838,60.086,0,55.357,0c-4.324,0-7.905,3.217-8.48,7.389 c-4.816-1.415-10.236-0.217-14.041,3.591l-1.23,1.229l-6.319,6.32L18.6,25.223zM6.747,16.938c-1.446,4.841-0.265,10.302,3.554,14.124l1.229,1.23l6.319,6.322l6.691,6.688l6.312-6.326 l-6.683-6.686l-6.32-6.321l-1.235-1.235c-2.045-2.045-2.047-5.383,0.011-7.442c2.051-2.054,5.375-2.054,7.426-0.002l0.489,0.491 l6.317-6.322l-0.492-0.493C26.763,7.361,21.708,6.1,17.088,7.185C16.429,3.111,12.899,0.002,8.643,0 C3.914,0,0.082,3.842,0.082,8.572C0.082,12.656,2.93,16.072,6.747,16.938zM56.639,46.941c1.135-4.653-0.121-9.768-3.756-13.405l-1.238-1.242l-6.314-6.325l-6.662-6.681l-6.32,6.32 l6.669,6.686l6.312,6.326l1.235,1.238c2.062,2.064,2.054,5.382,0.01,7.429c-2.049,2.051-5.375,2.051-7.426-0.002l-0.482-0.486 l-6.314,6.326l0.482,0.483c3.844,3.849,9.354,5.027,14.211,3.531C47.837,61.055,51.293,64,55.441,64C60.166,64,64,60.166,64,55.43 C64,51.105,60.801,47.525,56.639,46.941zM44.582,39.369l-6.311-6.326l-6.672,6.688l-6.313,6.322l-1.235,1.24c-2.045,2.049-5.378,2.051-7.434-0.008 c-2.053-2.057-2.053-5.381-0.003-7.436l0.488-0.486l-6.318-6.32l-0.483,0.482c-3.67,3.676-4.91,8.864-3.717,13.561 C2.81,47.979,0,51.377,0,55.43C0,60.164,3.833,64,8.563,64c4.067-0.002,7.472-2.838,8.346-6.649 c4.668,1.159,9.813-0.082,13.458-3.734l1.24-1.24l6.314-6.326L44.582,39.369z"/></g></svg>