<?xml version="1.0" encoding="utf-8"?>
<!-- Generator: Adobe Illustrator 17.0.0, SVG Export Plug-In . SVG Version: 6.00 Build 0)  -->
<!DOCTYPE svg PUBLIC "-//W3C//DTD SVG 1.1//EN" "http://www.w3.org/Graphics/SVG/1.1/DTD/svg11.dtd">
<svg version="1.1" xmlns="http://www.w3.org/2000/svg" xmlns:xlink="http://www.w3.org/1999/xlink" x="0px" y="0px" width="64px"
	 height="64px" viewBox="0 0 64 64" enable-background="new 0 0 64 64" xml:space="preserve">
<g id="envato">
</g>
<g id="css3">
</g>
<g id="html5">
</g>
<g id="feed">
</g>
<g id="skype">
</g>
<g id="paypal">
</g>
<g id="evernote">
</g>
<g id="dropbox">
</g>
<g id="codepen">
</g>
<g id="jsfiddle">
	<path d="M0,41.156c0-2.292,0.573-4.406,1.718-6.344s2.677-3.468,4.594-4.594c-0.25-0.813-0.375-1.667-0.375-2.563
		c0-2.396,0.854-4.437,2.563-6.125S12.281,19,14.718,19c1.979,0,3.771,0.604,5.375,1.812c1.563-3.208,3.88-5.792,6.953-7.75
		c3.072-1.958,6.474-2.937,10.203-2.937c3.459,0,6.646,0.839,9.563,2.516s5.224,3.953,6.922,6.828
		c1.698,2.875,2.547,6.011,2.547,9.406c0,0.125-0.005,0.312-0.016,0.563c-0.011,0.25-0.016,0.438-0.016,0.563
		c2.312,0.958,4.182,2.474,5.61,4.546c1.427,2.073,2.141,4.38,2.14,6.922c0,3.417-1.229,6.338-3.687,8.766
		c-2.458,2.427-5.427,3.641-8.907,3.641c-0.083,0-0.203-0.005-0.36-0.016c-0.156-0.011-0.266-0.016-0.328-0.016H12.687
		c-3.541-0.208-6.541-1.515-9-3.922C1.228,47.516-0.001,44.594,0,41.156z M14.625,38.313c0,2.542,0.875,4.552,2.625,6.031
		c1.75,1.479,3.917,2.219,6.5,2.219c2.854,0,5.354-1.031,7.5-3.094c-0.333-0.416-0.828-1.005-1.484-1.766
		c-0.656-0.761-1.109-1.287-1.36-1.578c-1.396,1.354-2.896,2.031-4.5,2.031c-1.146,0-2.12-0.349-2.922-1.046
		s-1.203-1.609-1.203-2.734c0-1.104,0.401-2.01,1.203-2.719c0.802-0.708,1.755-1.062,2.859-1.062c0.916,0,1.797,0.219,2.641,0.656
		c0.844,0.437,1.604,1.01,2.281,1.718c0.677,0.708,1.354,1.49,2.031,2.344c0.677,0.855,1.396,1.709,2.156,2.563
		c0.76,0.854,1.562,1.635,2.406,2.344s1.854,1.282,3.031,1.718c1.177,0.437,2.442,0.656,3.797,0.656
		c2.521,0,4.651-0.745,6.391-2.235c1.74-1.49,2.61-3.474,2.609-5.953c0-2.521-0.875-4.521-2.625-6
		c-1.75-1.479-3.906-2.219-6.469-2.219c-2.979,0-5.489,1.01-7.531,3.031c0.292,0.333,0.599,0.687,0.922,1.062
		c0.323,0.375,0.683,0.792,1.078,1.25c0.395,0.458,0.698,0.813,0.906,1.062c1.375-1.333,2.854-2,4.437-2
		c1.083,0,2.042,0.344,2.875,1.032c0.834,0.688,1.25,1.563,1.25,2.625c0,1.188-0.385,2.141-1.156,2.859
		c-0.771,0.719-1.75,1.078-2.937,1.078c-0.896,0-1.755-0.219-2.578-0.656c-0.823-0.437-1.572-1.01-2.25-1.718
		c-0.677-0.708-1.359-1.49-2.047-2.344c-0.687-0.855-1.411-1.709-2.172-2.563c-0.761-0.854-1.568-1.635-2.422-2.344
		c-0.854-0.709-1.859-1.282-3.015-1.718c-1.156-0.437-2.39-0.656-3.703-0.656c-2.542,0-4.698,0.734-6.469,2.203
		c-1.771,1.469-2.656,3.443-2.656,5.922L14.625,38.313z"/>
</g>
<g id="medium">
</g>
<g id="squarespace">
</g>
<g id="joomla">
</g>
<g id="drupal">
</g>
<g id="wordpress">
</g>
<g id="linux">
</g>
<g id="windows">
</g>
<g id="apple">
</g>
<g id="android">
</g>
<g id="youtube">
</g>
<g id="yelp">
</g>
<g id="vine">
</g>
<g id="vimeo">
</g>
<g id="viadeo">
</g>
<g id="twitter">
</g>
<g id="tumblr">
</g>
<g id="stumbleupon">
</g>
<g id="spotify">
</g>
<g id="soundcloud">
</g>
<g id="reddit">
</g>
<g id="rdio">
</g>
<g id="quora">
</g>
<g id="pinterest">
</g>
<g id="linkedin">
</g>
<g id="lastfm">
</g>
<g id="instagram">
</g>
<g id="google-plus">
</g>
<g id="github">
</g>
<g id="foursquare">
</g>
<g id="flickr">
</g>
<g id="facebook">
</g>
<g id="dribbble">
</g>
<g id="deviantart">
</g>
<g id="delicious">
</g>
<g id="blogger">
</g>
<g id="behance">
</g>
</svg>
