<svg xmlns="http://www.w3.org/2000/svg" width="64" height="64" viewBox="0 0 64 64"><path fill="#040000" d="M61.86,34.547c-1.427-2.073-3.297-3.588-5.61-4.547c0-0.125,0.005-0.312,0.016-0.563 s0.016-0.438,0.016-0.563c0-3.396-0.849-6.531-2.547-9.406s-4.005-5.151-6.922-6.828c-2.917-1.677-6.104-2.516-9.563-2.516 c-3.73,0-7.131,0.979-10.203,2.937c-3.072,1.958-5.39,4.542-6.953,7.75C18.489,19.604,16.698,19,14.718,19 c-2.437,0-4.51,0.844-6.219,2.531c-1.709,1.688-2.563,3.729-2.563,6.125c0,0.896,0.125,1.75,0.375,2.563 c-1.917,1.125-3.448,2.656-4.594,4.594C0.573,36.75,0,38.865,0,41.156c-0.001,3.438,1.229,6.359,3.687,8.766s5.459,3.714,9,3.922 h38.031c0.062,0,0.172,0.005,0.328,0.016s0.276,0.016,0.36,0.016c3.48,0,6.448-1.214,8.907-3.641 C62.771,47.807,64,44.885,64,41.469C64.001,38.927,63.287,36.619,61.86,34.547z M48.577,44.36c-1.74,1.49-3.87,2.235-6.391,2.235 c-1.354-0.001-2.62-0.219-3.797-0.656c-1.177-0.437-2.187-1.01-3.031-1.719c-0.844-0.709-1.646-1.49-2.406-2.344 c-0.76-0.854-1.479-1.708-2.156-2.563c-0.677-0.855-1.354-1.636-2.031-2.344c-0.677-0.708-1.437-1.281-2.281-1.719 c-0.844-0.438-1.724-0.656-2.641-0.656c-1.104,0-2.057,0.354-2.86,1.062c-0.802,0.708-1.203,1.614-1.203,2.719 c0,1.125,0.401,2.037,1.203,2.734c0.802,0.698,1.776,1.047,2.922,1.047c1.604,0,3.104-0.677,4.5-2.031 c0.25,0.292,0.703,0.818,1.36,1.579c0.656,0.761,1.151,1.349,1.484,1.766c-2.146,2.063-4.646,3.094-7.5,3.094 c-2.583,0-4.75-0.74-6.5-2.219c-1.75-1.479-2.625-3.49-2.625-6.031l0.002-0.001c0-2.479,0.885-4.453,2.656-5.922 c1.771-1.469,3.927-2.203,6.469-2.203c1.313,0.001,2.547,0.219,3.703,0.656c1.156,0.437,2.161,1.01,3.015,1.719 s1.661,1.49,2.422,2.344c0.761,0.854,1.485,1.708,2.172,2.563c0.687,0.855,1.369,1.636,2.047,2.344 c0.677,0.708,1.427,1.281,2.25,1.718s1.682,0.656,2.578,0.656c1.188,0,2.167-0.359,2.938-1.078 c0.771-0.719,1.156-1.672,1.156-2.859c0-1.062-0.417-1.937-1.25-2.625c-0.834-0.688-1.792-1.032-2.875-1.032 c-1.583,0-3.062,0.667-4.437,2c-0.209-0.25-0.511-0.604-0.906-1.062s-0.755-0.875-1.078-1.25c-0.323-0.375-0.631-0.729-0.922-1.062 c2.042-2.021,4.552-3.031,7.531-3.031c2.563,0,4.719,0.74,6.469,2.219c1.75,1.479,2.625,3.479,2.625,6 C51.187,40.885,50.317,42.87,48.577,44.36z"/></svg>