<svg xmlns="http://www.w3.org/2000/svg" width="64" height="64" viewBox="0 0 64 64"><path d="M28.225,45.892l-2.346-6.378c0,0-3.812,4.252-9.53,4.252c-5.059,0-8.651-4.399-8.651-11.437 c0-9.017,4.545-12.243,9.017-12.243c6.451,0,8.503,4.179,10.263,9.53l2.346,7.331c2.345,7.111,6.744,12.829,19.426,12.829 C57.842,49.777,64,46.992,64,39.661c0-5.938-3.373-9.017-9.677-10.484l-4.692-1.026c-3.225-0.733-4.178-2.053-4.178-4.252 c0-2.493,1.979-3.959,5.205-3.959c3.519,0,5.425,1.32,5.718,4.472l7.331-0.88c-0.586-6.598-5.131-9.31-12.609-9.31 c-6.598,0-13.049,2.493-13.049,10.483c0,4.985,2.419,8.138,8.503,9.604l4.986,1.173c3.739,0.88,4.984,2.419,4.984,4.545 c0,2.712-2.639,3.812-7.624,3.812c-7.404,0-10.483-3.885-12.243-9.237l-2.419-7.331c-3.079-9.53-7.991-13.049-17.741-13.049 C5.718,14.223,0,21.04,0,32.623c0,11.143,5.718,17.154,15.982,17.154C24.266,49.777,28.225,45.892,28.225,45.892L28.225,45.892z"/></svg>