<?xml version="1.0" encoding="utf-8"?>
<!-- Generator: Adobe Illustrator 17.0.0, SVG Export Plug-In . SVG Version: 6.00 Build 0)  -->
<!DOCTYPE svg PUBLIC "-//W3C//DTD SVG 1.1//EN" "http://www.w3.org/Graphics/SVG/1.1/DTD/svg11.dtd">
<svg version="1.1" xmlns="http://www.w3.org/2000/svg" xmlns:xlink="http://www.w3.org/1999/xlink" x="0px" y="0px" width="64px"
	 height="64px" viewBox="0 0 64 64" enable-background="new 0 0 64 64" xml:space="preserve">
<g id="envato">
</g>
<g id="css3">
</g>
<g id="html5">
</g>
<g id="feed">
</g>
<g id="skype">
</g>
<g id="paypal">
</g>
<g id="evernote">
</g>
<g id="dropbox">
</g>
<g id="codepen">
</g>
<g id="jsfiddle">
</g>
<g id="medium">
</g>
<g id="squarespace">
</g>
<g id="joomla">
</g>
<g id="drupal">
</g>
<g id="wordpress">
</g>
<g id="linux">
	<path d="M4.957,58.962c-0.238-0.548-0.155-1.339,0.25-2.375s0.619-1.684,0.643-1.946c0.024-0.381-0.024-0.857-0.143-1.428
		c-0.119-0.571-0.238-1.077-0.357-1.518c-0.119-0.44-0.173-0.875-0.161-1.303c0.012-0.429,0.137-0.75,0.375-0.964
		c0.333-0.286,1.012-0.452,2.036-0.5c1.024-0.048,1.738-0.19,2.143-0.429c0.714-0.429,1.214-0.845,1.5-1.25
		c0.286-0.405,0.429-1.012,0.429-1.821c0.5,1.738,0.119,3-1.143,3.785c-0.762,0.476-1.75,0.655-2.964,0.536
		c-0.809-0.071-1.321,0.048-1.536,0.357c-0.31,0.357-0.25,1.036,0.179,2.036c0.048,0.143,0.143,0.357,0.286,0.643
		c0.143,0.286,0.244,0.5,0.304,0.643c0.06,0.143,0.113,0.345,0.161,0.607s0.06,0.524,0.036,0.786c0,0.357-0.202,0.94-0.607,1.75
		c-0.405,0.809-0.571,1.381-0.5,1.714c0.071,0.405,0.512,0.714,1.321,0.929c0.476,0.143,1.482,0.363,3.018,0.661
		c1.536,0.298,2.72,0.542,3.553,0.732c0.571,0.143,1.452,0.405,2.643,0.786c1.19,0.381,2.172,0.655,2.946,0.821
		s1.434,0.214,1.982,0.143c1.024-0.143,1.792-0.476,2.303-1c0.512-0.524,0.786-1.095,0.821-1.714
		c0.036-0.619-0.054-1.315-0.268-2.089s-0.44-1.393-0.679-1.857c-0.238-0.464-0.476-0.899-0.714-1.303
		c-2.881-4.523-4.892-7.404-6.035-8.642c-1.619-1.762-2.964-2.238-4.035-1.428c-0.262,0.214-0.44,0.036-0.536-0.536
		c-0.071-0.381-0.095-0.833-0.071-1.357c0.024-0.69,0.143-1.309,0.357-1.857c0.214-0.548,0.5-1.107,0.857-1.678
		c0.357-0.571,0.619-1.071,0.786-1.5c0.19-0.5,0.506-1.357,0.946-2.571c0.44-1.214,0.792-2.143,1.053-2.786
		c0.262-0.643,0.619-1.369,1.071-2.178c0.452-0.809,0.917-1.452,1.393-1.928c2.619-3.405,4.095-5.726,4.428-6.964
		c-0.286-2.666-0.476-6.357-0.571-11.071c-0.048-2.143,0.238-3.946,0.857-5.41s1.881-2.708,3.785-3.732
		c0.929-0.5,2.167-0.75,3.714-0.75c1.262-0.024,2.524,0.137,3.785,0.482c1.262,0.345,2.321,0.839,3.178,1.482
		c1.357,1,2.446,2.446,3.268,4.339c0.821,1.893,1.173,3.649,1.053,5.267c-0.119,2.262,0.238,4.809,1.071,7.642
		c0.809,2.69,2.393,5.285,4.75,7.785c1.309,1.405,2.494,3.345,3.553,5.821c1.059,2.476,1.768,4.75,2.125,6.821
		c0.19,1.167,0.25,2.172,0.179,3.018s-0.214,1.506-0.429,1.982c-0.214,0.476-0.452,0.738-0.714,0.786
		c-0.238,0.048-0.518,0.274-0.839,0.679c-0.321,0.405-0.643,0.827-0.964,1.268c-0.321,0.44-0.804,0.839-1.446,1.196
		c-0.643,0.357-1.369,0.524-2.178,0.5c-0.429-0.024-0.804-0.083-1.125-0.179c-0.321-0.095-0.589-0.256-0.804-0.482
		c-0.214-0.226-0.375-0.411-0.482-0.554c-0.107-0.143-0.244-0.387-0.411-0.732s-0.274-0.577-0.321-0.696
		c-0.524-0.881-1.012-1.238-1.464-1.071c-0.452,0.167-0.786,0.75-1,1.75c-0.214,1-0.131,2.155,0.25,3.464
		c0.476,1.667,0.488,3.988,0.036,6.964c-0.238,1.548-0.024,2.744,0.643,3.589s1.536,1.238,2.607,1.178
		c1.071-0.06,2.083-0.482,3.035-1.268c1.405-1.167,2.47-1.958,3.196-2.375c0.726-0.417,1.958-0.923,3.696-1.518
		c1.262-0.429,2.178-0.863,2.75-1.303c0.571-0.44,0.792-0.851,0.661-1.232c-0.131-0.381-0.429-0.72-0.893-1.018
		s-1.077-0.577-1.839-0.839c-0.786-0.262-1.375-0.833-1.768-1.714c-0.393-0.881-0.571-1.744-0.536-2.589
		c0.036-0.845,0.22-1.411,0.554-1.696c0.024,0.738,0.119,1.411,0.286,2.018s0.339,1.089,0.518,1.446
		c0.179,0.357,0.423,0.696,0.732,1.018c0.309,0.321,0.559,0.548,0.75,0.679c0.19,0.131,0.446,0.286,0.768,0.464
		c0.321,0.179,0.518,0.292,0.589,0.339c0.476,0.286,0.845,0.577,1.107,0.875s0.405,0.583,0.429,0.857
		c0.024,0.274-0.006,0.542-0.089,0.804c-0.083,0.262-0.268,0.524-0.554,0.786s-0.565,0.494-0.839,0.696
		c-0.274,0.202-0.631,0.423-1.071,0.661c-0.44,0.238-0.815,0.434-1.125,0.589c-0.309,0.155-0.69,0.339-1.143,0.554
		c-0.452,0.214-0.774,0.369-0.964,0.464c-0.905,0.452-1.922,1.119-3.053,2c-1.131,0.881-2.03,1.643-2.696,2.286
		c-0.405,0.381-1.214,0.613-2.428,0.696s-2.274-0.089-3.178-0.518c-0.429-0.214-0.78-0.494-1.053-0.839s-0.47-0.649-0.589-0.911
		s-0.381-0.494-0.786-0.696c-0.405-0.202-0.964-0.315-1.678-0.339c-1.048-0.024-2.595-0.036-4.643-0.036
		c-0.452,0-1.131,0.018-2.036,0.054c-0.905,0.036-1.595,0.065-2.071,0.089c-1.048,0.024-1.994,0.202-2.839,0.536
		c-0.845,0.333-1.482,0.69-1.911,1.071c-0.429,0.381-0.946,0.72-1.553,1.018c-0.607,0.298-1.244,0.434-1.911,0.411
		c-0.69-0.024-2.012-0.393-3.964-1.107c-1.952-0.714-3.69-1.226-5.214-1.536c-0.452-0.095-1.059-0.208-1.821-0.339
		c-0.762-0.131-1.357-0.238-1.786-0.321c-0.429-0.083-0.899-0.196-1.411-0.339c-0.512-0.143-0.911-0.315-1.196-0.518
		C5.278,59.456,5.076,59.224,4.957,58.962z M16.028,37.178c-0.857,1.548-0.738,3.524,0.357,5.928c0.119,0.286,0.417,0.619,0.893,1
		c0.476,0.381,0.762,0.619,0.857,0.714c0.476,0.548,1.714,1.625,3.714,3.232c2,1.607,3.107,2.518,3.321,2.732
		c0.381,0.357,0.589,0.809,0.625,1.357c0.036,0.548-0.131,1.059-0.5,1.536c-0.369,0.476-0.911,0.75-1.625,0.821
		c0.19,0.357,0.536,0.887,1.036,1.589c0.5,0.702,0.833,1.345,1,1.928c0.167,0.583,0.25,1.423,0.25,2.518
		c1.095-0.571,1.178-1.667,0.25-3.285c-0.095-0.19-0.22-0.381-0.375-0.571c-0.155-0.19-0.268-0.333-0.339-0.429
		c-0.071-0.095-0.095-0.167-0.071-0.214c0.071-0.119,0.226-0.232,0.464-0.339c0.238-0.107,0.476-0.077,0.714,0.089
		c1.095,1.238,3.071,1.667,5.928,1.286c3.166-0.357,5.273-1.393,6.321-3.107c0.548-0.905,0.952-1.262,1.214-1.071
		c0.286,0.143,0.405,0.762,0.357,1.857c-0.024,0.595-0.298,1.69-0.821,3.285c-0.214,0.548-0.286,0.994-0.214,1.339
		s0.357,0.53,0.857,0.554c0.071-0.452,0.244-1.369,0.518-2.75s0.434-2.452,0.482-3.214c0.048-0.5-0.03-1.375-0.232-2.625
		c-0.202-1.25-0.292-2.405-0.268-3.464c0.024-1.059,0.298-1.899,0.821-2.518c0.357-0.429,0.964-0.643,1.821-0.643
		c0.024-0.881,0.434-1.512,1.232-1.893c0.798-0.381,1.661-0.506,2.589-0.375c0.929,0.131,1.643,0.399,2.143,0.804
		c0-0.429-0.655-0.929-1.964-1.5c0.095-0.357,0.185-0.684,0.268-0.982c0.083-0.298,0.143-0.607,0.179-0.929
		c0.036-0.321,0.071-0.577,0.107-0.768c0.036-0.19,0.042-0.458,0.018-0.804s-0.036-0.577-0.036-0.696
		c0-0.119-0.042-0.381-0.125-0.786s-0.131-0.649-0.143-0.732c-0.012-0.083-0.071-0.381-0.179-0.893
		c-0.107-0.512-0.173-0.827-0.196-0.946c-0.238-1.143-0.798-2.369-1.678-3.678c-0.881-1.309-1.738-2.202-2.571-2.678
		c0.571,0.476,1.25,1.464,2.036,2.964c2.071,3.857,2.714,7.166,1.928,9.928c-0.262,0.952-0.857,1.452-1.786,1.5
		c-0.738,0.095-1.196-0.125-1.375-0.661c-0.179-0.536-0.274-1.53-0.286-2.982c-0.012-1.452-0.149-2.726-0.411-3.821
		c-0.214-0.929-0.446-1.75-0.696-2.464c-0.25-0.714-0.482-1.256-0.696-1.625c-0.214-0.369-0.399-0.661-0.554-0.875
		s-0.31-0.393-0.464-0.536c-0.155-0.143-0.244-0.226-0.268-0.25c-0.333-1.476-0.702-2.702-1.107-3.678
		c-0.405-0.976-0.756-1.643-1.053-2s-0.577-0.75-0.839-1.178c-0.262-0.429-0.44-0.905-0.536-1.428
		c-0.095-0.5-0.024-1.137,0.214-1.911c0.238-0.774,0.292-1.363,0.161-1.768s-0.661-0.702-1.589-0.893
		c-0.357-0.071-0.887-0.286-1.589-0.643c-0.702-0.357-1.125-0.548-1.268-0.571c-0.19-0.024-0.321-0.333-0.393-0.929
		c-0.071-0.595,0.024-1.202,0.286-1.821c0.262-0.619,0.69-0.94,1.286-0.964c0.881-0.071,1.488,0.286,1.821,1.071
		s0.381,1.476,0.143,2.071c-0.262,0.452-0.286,0.768-0.071,0.946c0.214,0.179,0.571,0.185,1.071,0.018
		c0.31-0.095,0.464-0.524,0.464-1.286v-1.321c-0.119-0.714-0.28-1.309-0.482-1.786s-0.452-0.839-0.75-1.089
		s-0.577-0.429-0.839-0.536c-0.262-0.107-0.583-0.196-0.964-0.268c-2.547,0.19-3.607,1.786-3.178,4.785
		c0,0.357-0.012,0.536-0.036,0.536c-0.214-0.214-0.565-0.339-1.053-0.375c-0.488-0.036-0.881-0.03-1.178,0.018
		s-0.482-0.012-0.554-0.179c0.024-1.357-0.167-2.428-0.571-3.214c-0.405-0.786-0.94-1.19-1.607-1.214
		c-0.643-0.024-1.137,0.304-1.482,0.982s-0.542,1.387-0.589,2.125c-0.024,0.357,0.018,0.798,0.125,1.321
		c0.107,0.524,0.262,0.97,0.464,1.339c0.202,0.369,0.387,0.53,0.554,0.482c0.238-0.071,0.429-0.238,0.571-0.5
		c0.095-0.214,0.012-0.31-0.25-0.286c-0.167,0-0.351-0.173-0.554-0.518s-0.315-0.744-0.339-1.196
		c-0.024-0.524,0.083-0.964,0.321-1.321c0.238-0.357,0.643-0.524,1.214-0.5c0.405,0,0.726,0.25,0.964,0.75
		c0.238,0.5,0.351,0.964,0.339,1.393c-0.012,0.429-0.03,0.69-0.054,0.786c-0.524,0.357-0.893,0.702-1.107,1.036
		c-0.19,0.286-0.518,0.565-0.982,0.839c-0.464,0.274-0.708,0.423-0.732,0.446c-0.31,0.333-0.494,0.655-0.554,0.964
		c-0.06,0.309,0.03,0.524,0.268,0.643c0.333,0.19,0.631,0.423,0.893,0.696c0.262,0.274,0.452,0.5,0.571,0.679
		s0.339,0.333,0.661,0.464c0.321,0.131,0.744,0.208,1.268,0.232c1.119,0.048,2.333-0.131,3.643-0.536
		c0.048-0.024,0.321-0.107,0.821-0.25c0.5-0.143,0.911-0.268,1.232-0.375c0.321-0.107,0.673-0.262,1.053-0.464
		c0.381-0.202,0.631-0.411,0.75-0.625c0.214-0.333,0.452-0.429,0.714-0.286c0.119,0.071,0.196,0.173,0.232,0.304
		c0.036,0.131,0,0.274-0.107,0.429c-0.107,0.155-0.304,0.268-0.589,0.339c-0.476,0.143-1.149,0.399-2.018,0.768
		c-0.869,0.369-1.411,0.601-1.625,0.696c-1.048,0.452-1.881,0.726-2.5,0.821c-0.595,0.119-1.536,0.095-2.821-0.071
		c-0.238-0.048-0.345-0.024-0.321,0.071c0.024,0.095,0.226,0.321,0.607,0.679c0.595,0.548,1.393,0.809,2.393,0.786
		c0.405-0.024,0.833-0.107,1.286-0.25c0.452-0.143,0.881-0.31,1.286-0.5c0.405-0.19,0.804-0.399,1.196-0.625
		c0.393-0.226,0.75-0.429,1.071-0.607c0.321-0.179,0.613-0.321,0.875-0.429c0.262-0.107,0.47-0.137,0.625-0.089
		c0.155,0.048,0.256,0.179,0.304,0.393c0,0.048-0.012,0.101-0.036,0.161c-0.024,0.06-0.071,0.119-0.143,0.179
		c-0.071,0.06-0.143,0.113-0.214,0.161s-0.173,0.107-0.304,0.179c-0.131,0.071-0.238,0.125-0.321,0.161
		c-0.083,0.036-0.202,0.095-0.357,0.179c-0.155,0.083-0.268,0.137-0.339,0.161c-0.667,0.333-1.47,0.857-2.411,1.571
		c-0.94,0.714-1.732,1.226-2.375,1.536c-0.643,0.309-1.226,0.321-1.75,0.036c-0.5-0.262-1.25-1.131-2.25-2.607
		c-0.524-0.738-0.821-1-0.893-0.786c-0.024,0.071-0.036,0.19-0.036,0.357c0,0.595-0.179,1.268-0.536,2.018
		c-0.357,0.75-0.708,1.411-1.053,1.982c-0.345,0.571-0.595,1.262-0.75,2.071s-0.018,1.559,0.411,2.25
		c-0.548,0.143-1.292,1.214-2.232,3.214c-0.94,2-1.506,3.678-1.696,5.035c-0.048,0.429-0.065,1.25-0.054,2.464
		c0.012,1.214-0.054,1.917-0.196,2.107c-0.19,0.571-0.536,0.607-1.036,0.107c-0.762-0.738-1.19-1.857-1.286-3.357
		c-0.048-0.667,0-1.333,0.143-2C16.301,37.19,16.29,36.976,16.17,37L16.028,37.178z M17.849,32.357
		c0.095,0.024,0.244-0.06,0.446-0.25s0.351-0.405,0.446-0.643c0.024-0.071,0.048-0.155,0.071-0.25s0.048-0.167,0.071-0.214
		s0.042-0.101,0.054-0.161c0.012-0.06,0.018-0.107,0.018-0.143v-0.107c0,0-0.012-0.03-0.036-0.089
		c-0.024-0.06-0.06-0.083-0.107-0.071c-0.095-0.024-0.167,0.012-0.214,0.107c-0.048,0.095-0.101,0.244-0.161,0.446
		c-0.06,0.202-0.125,0.363-0.196,0.482c-0.071,0.119-0.19,0.274-0.357,0.464C17.718,32.167,17.706,32.309,17.849,32.357z
		 M26.098,12.359c0.048,0.119,0.107,0.19,0.179,0.214c0.238,0,0.321,0.179,0.25,0.536c-0.071,0.476,0.024,0.714,0.286,0.714
		c0.071,0,0.107-0.036,0.107-0.107c0.071-0.405,0.042-0.762-0.089-1.071s-0.268-0.488-0.411-0.536
		C26.205,12.061,26.098,12.144,26.098,12.359z M27.205,15.215c0-0.286,0.226-0.464,0.679-0.536h0.357
		c-0.262,0.024-0.446,0.149-0.554,0.375c-0.107,0.226-0.208,0.339-0.304,0.339C27.265,15.418,27.205,15.358,27.205,15.215z
		 M30.312,14.787c0.571-0.262,0.952-0.238,1.143,0.071c0.071,0.143,0.036,0.25-0.107,0.321c-0.095,0.024-0.232-0.054-0.411-0.232
		C30.759,14.769,30.55,14.715,30.312,14.787z M34.383,12.144l0.143,0.071c0.333,0.095,0.548,0.464,0.643,1.107
		c0,0.071,0.095,0.048,0.286-0.071l0.071-0.107c0-0.262-0.06-0.494-0.179-0.696c-0.119-0.202-0.25-0.351-0.393-0.446
		c-0.143-0.095-0.25-0.131-0.321-0.107C34.3,11.918,34.217,12.001,34.383,12.144z M34.955,5.52c-0.024,0.06,0.012,0.161,0.107,0.304
		c0.095,0.071,0.19,0.071,0.286,0c0.095-0.071,0.226-0.179,0.393-0.321c0.167-0.143,0.345-0.25,0.536-0.321
		c0.024-0.024,0.131-0.036,0.321-0.036c0.19,0,0.369-0.024,0.536-0.071c0.167-0.048,0.274-0.131,0.321-0.25
		c0-0.048-0.03-0.107-0.089-0.179c-0.06-0.071-0.167-0.155-0.321-0.25c-0.155-0.095-0.268-0.167-0.339-0.214
		c-0.357-0.357-0.643-0.536-0.857-0.536c-0.214,0.024-0.351,0.113-0.411,0.268c-0.06,0.155-0.071,0.31-0.036,0.464
		c0.036,0.155,0.03,0.304-0.018,0.446c-0.024,0.095-0.095,0.22-0.214,0.375C35.05,5.353,34.979,5.46,34.955,5.52z M39.597,19.072
		c-0.333,0.381-0.25,0.899,0.25,1.553c0.5,0.655,0.964,1.03,1.393,1.125c0.214,0.024,0.387-0.071,0.518-0.286
		c0.131-0.214,0.173-0.452,0.125-0.714c-0.048-0.19-0.125-0.327-0.232-0.411c-0.107-0.083-0.262-0.143-0.464-0.179
		c-0.202-0.036-0.375-0.101-0.518-0.196c-0.119-0.071-0.232-0.167-0.339-0.286c-0.107-0.119-0.19-0.214-0.25-0.286
		c-0.06-0.071-0.125-0.149-0.196-0.232s-0.119-0.131-0.143-0.143C39.716,19.007,39.669,19.025,39.597,19.072z"/>
</g>
<g id="windows">
</g>
<g id="apple">
</g>
<g id="android">
</g>
<g id="youtube">
</g>
<g id="yelp">
</g>
<g id="vine">
</g>
<g id="vimeo">
</g>
<g id="viadeo">
</g>
<g id="twitter">
</g>
<g id="tumblr">
</g>
<g id="stumbleupon">
</g>
<g id="spotify">
</g>
<g id="soundcloud">
</g>
<g id="reddit">
</g>
<g id="rdio">
</g>
<g id="quora">
</g>
<g id="pinterest">
</g>
<g id="linkedin">
</g>
<g id="lastfm">
</g>
<g id="instagram">
</g>
<g id="google-plus">
</g>
<g id="github">
</g>
<g id="foursquare">
</g>
<g id="flickr">
</g>
<g id="facebook">
</g>
<g id="dribbble">
</g>
<g id="deviantart">
</g>
<g id="delicious">
</g>
<g id="blogger">
</g>
<g id="behance">
</g>
</svg>
