<svg xmlns="http://www.w3.org/2000/svg" width="64" height="64" viewBox="0 0 64 64"><g fill="#040000"><path d="M58.739,53.588c-0.262-0.298-0.631-0.589-1.107-0.875c-0.071-0.048-0.268-0.161-0.589-0.339 c-0.321-0.179-0.577-0.333-0.768-0.464c-0.19-0.131-0.44-0.357-0.75-0.679c-0.31-0.321-0.554-0.661-0.732-1.018 c-0.179-0.357-0.351-0.839-0.518-1.446c-0.167-0.607-0.262-1.28-0.286-2.018c-0.333,0.286-0.518,0.851-0.554,1.696 c-0.036,0.845,0.143,1.708,0.536,2.589s0.982,1.452,1.768,1.714c0.762,0.262,1.375,0.542,1.839,0.839 c0.464,0.298,0.762,0.637,0.893,1.018c0.131,0.381-0.089,0.792-0.661,1.232c-0.571,0.44-1.488,0.875-2.75,1.303 c-1.738,0.595-2.97,1.101-3.696,1.518c-0.726,0.417-1.792,1.208-3.196,2.375c-0.952,0.786-1.964,1.208-3.035,1.268 s-1.94-0.333-2.607-1.179c-0.667-0.845-0.881-2.042-0.643-3.589c0.452-2.976,0.44-5.297-0.036-6.964 c-0.381-1.309-0.464-2.464-0.25-3.464s0.548-1.583,1-1.75c0.452-0.167,0.94,0.19,1.464,1.071c0.048,0.119,0.155,0.351,0.321,0.696 c0.167,0.345,0.304,0.589,0.411,0.732c0.107,0.143,0.268,0.327,0.482,0.554c0.214,0.226,0.482,0.387,0.804,0.482 s0.696,0.155,1.125,0.179c0.81,0.024,1.536-0.143,2.178-0.5c0.643-0.357,1.125-0.756,1.446-1.196 c0.321-0.44,0.643-0.863,0.964-1.268s0.601-0.631,0.839-0.679c0.262-0.048,0.5-0.309,0.714-0.786 c0.214-0.476,0.357-1.137,0.429-1.982c0.071-0.845,0.012-1.851-0.179-3.018c-0.357-2.071-1.065-4.345-2.125-6.821 c-1.059-2.476-2.244-4.416-3.553-5.821c-2.357-2.5-3.94-5.095-4.75-7.785c-0.833-2.833-1.19-5.381-1.071-7.642 c0.119-1.619-0.232-3.375-1.053-5.268c-0.821-1.893-1.911-3.339-3.268-4.339c-0.857-0.643-1.917-1.137-3.178-1.482 c-1.262-0.345-2.524-0.506-3.785-0.482c-1.547,0-2.786,0.25-3.714,0.75c-1.905,1.024-3.166,2.268-3.785,3.732 c-0.619,1.464-0.905,3.268-0.857,5.41c0.095,4.714,0.286,8.404,0.571,11.071c-0.333,1.238-1.809,3.559-4.428,6.964 c-0.476,0.476-0.94,1.119-1.393,1.928c-0.452,0.81-0.809,1.536-1.071,2.178c-0.262,0.643-0.613,1.571-1.053,2.786 s-0.756,2.071-0.946,2.571c-0.167,0.429-0.429,0.929-0.786,1.5c-0.357,0.571-0.643,1.131-0.857,1.678 c-0.214,0.548-0.333,1.167-0.357,1.857c-0.024,0.524,0,0.976,0.071,1.357c0.095,0.571,0.274,0.75,0.536,0.536 c1.071-0.809,2.417-0.333,4.035,1.428c1.143,1.238,3.155,4.119,6.035,8.642c0.238,0.405,0.476,0.839,0.714,1.303 c0.238,0.464,0.464,1.083,0.679,1.857c0.214,0.774,0.304,1.47,0.268,2.089s-0.31,1.19-0.821,1.714 c-0.512,0.524-1.28,0.857-2.303,1c-0.548,0.071-1.208,0.024-1.982-0.143s-1.756-0.44-2.946-0.821s-2.071-0.643-2.643-0.786 c-0.833-0.19-2.018-0.435-3.553-0.732c-1.536-0.298-2.541-0.518-3.018-0.661c-0.81-0.214-1.25-0.524-1.321-0.929 c-0.071-0.333,0.095-0.905,0.5-1.714c0.405-0.809,0.607-1.393,0.607-1.75c0.024-0.262,0.012-0.524-0.036-0.786 c-0.048-0.262-0.101-0.464-0.161-0.607c-0.06-0.143-0.161-0.357-0.304-0.643c-0.143-0.286-0.238-0.5-0.286-0.643 c-0.429-1-0.488-1.678-0.179-2.036c0.214-0.309,0.726-0.429,1.536-0.357c1.214,0.119,2.202-0.06,2.964-0.536 c1.262-0.786,1.643-2.047,1.143-3.785c0,0.81-0.143,1.417-0.429,1.821c-0.286,0.405-0.786,0.821-1.5,1.25 C9.338,48.737,8.623,48.88,7.6,48.927s-1.702,0.214-2.036,0.5c-0.238,0.214-0.363,0.536-0.375,0.964 c-0.012,0.429,0.042,0.863,0.161,1.303c0.119,0.44,0.238,0.946,0.357,1.518c0.119,0.571,0.167,1.048,0.143,1.428 c-0.024,0.262-0.238,0.911-0.643,1.946s-0.488,1.827-0.25,2.375c0.119,0.262,0.321,0.494,0.607,0.696 c0.286,0.202,0.684,0.375,1.196,0.518c0.512,0.143,0.982,0.256,1.411,0.339c0.429,0.083,1.024,0.19,1.786,0.321 c0.762,0.131,1.369,0.244,1.821,0.339c1.524,0.31,3.262,0.821,5.214,1.536c1.952,0.714,3.274,1.083,3.964,1.107 c0.667,0.024,1.303-0.113,1.911-0.411c0.607-0.298,1.125-0.637,1.553-1.018c0.429-0.381,1.065-0.738,1.911-1.071 c0.845-0.333,1.792-0.512,2.839-0.536c0.476-0.024,1.167-0.054,2.071-0.089c0.905-0.036,1.583-0.054,2.036-0.054 c2.047,0,3.595,0.012,4.643,0.036c0.714,0.024,1.274,0.137,1.678,0.339c0.405,0.202,0.667,0.435,0.786,0.696 c0.119,0.262,0.315,0.565,0.589,0.911c0.274,0.345,0.625,0.625,1.053,0.839c0.905,0.429,1.964,0.601,3.178,0.518 c1.214-0.083,2.024-0.315,2.428-0.696c0.667-0.643,1.565-1.405,2.696-2.286c1.131-0.881,2.149-1.548,3.053-2 c0.19-0.095,0.512-0.25,0.964-0.464c0.452-0.214,0.833-0.399,1.143-0.554c0.31-0.155,0.685-0.351,1.125-0.589 c0.44-0.238,0.798-0.458,1.071-0.661c0.274-0.202,0.554-0.434,0.839-0.696s0.47-0.524,0.554-0.786 c0.083-0.262,0.113-0.53,0.089-0.804S59.001,53.885,58.739,53.588z M39.597,19.072c0.071-0.048,0.119-0.065,0.143-0.054 s0.071,0.06,0.143,0.143s0.137,0.161,0.196,0.232s0.143,0.167,0.25,0.286s0.22,0.214,0.339,0.286 c0.143,0.095,0.315,0.161,0.518,0.196c0.202,0.036,0.357,0.095,0.464,0.179c0.107,0.083,0.185,0.22,0.232,0.411 c0.048,0.262,0.006,0.5-0.125,0.714s-0.304,0.31-0.518,0.286c-0.429-0.095-0.893-0.47-1.393-1.125S39.264,19.453,39.597,19.072z M35.169,5.198c0.119-0.155,0.19-0.28,0.214-0.375c0.048-0.143,0.054-0.292,0.018-0.446c-0.036-0.155-0.024-0.31,0.036-0.464 c0.06-0.155,0.196-0.244,0.411-0.268c0.214,0,0.5,0.179,0.857,0.536c0.071,0.048,0.185,0.119,0.339,0.214 c0.155,0.095,0.262,0.179,0.321,0.25c0.06,0.071,0.089,0.131,0.089,0.179c-0.048,0.119-0.155,0.202-0.321,0.25 c-0.167,0.048-0.345,0.071-0.536,0.071c-0.19,0-0.298,0.012-0.321,0.036c-0.19,0.071-0.369,0.179-0.536,0.321 c-0.167,0.143-0.298,0.25-0.393,0.321c-0.095,0.071-0.19,0.071-0.286,0c-0.095-0.143-0.131-0.244-0.107-0.304 C34.979,5.46,35.05,5.353,35.169,5.198z M17.885,31.928c0.167-0.19,0.286-0.345,0.357-0.464c0.071-0.119,0.137-0.28,0.196-0.482 c0.06-0.202,0.113-0.351,0.161-0.446s0.119-0.131,0.214-0.107c0.048-0.012,0.083,0.012,0.107,0.071s0.036,0.089,0.036,0.089v0.107 c0,0.036-0.006,0.083-0.018,0.143c-0.012,0.06-0.03,0.113-0.054,0.161c-0.024,0.048-0.048,0.119-0.071,0.214 s-0.048,0.179-0.071,0.25c-0.095,0.238-0.244,0.452-0.446,0.643c-0.202,0.19-0.351,0.274-0.446,0.25 C17.706,32.309,17.718,32.167,17.885,31.928z M41.24,53.963c-0.048,0.762-0.208,1.833-0.482,3.214s-0.446,2.297-0.518,2.75 c-0.5-0.024-0.786-0.208-0.857-0.554s0-0.792,0.214-1.339c0.524-1.595,0.798-2.69,0.821-3.285 c0.048-1.095-0.071-1.714-0.357-1.857c-0.262-0.19-0.667,0.167-1.214,1.071c-1.048,1.714-3.154,2.75-6.321,3.107 c-2.857,0.381-4.833-0.048-5.928-1.286c-0.238-0.167-0.476-0.196-0.714-0.089c-0.238,0.107-0.393,0.22-0.464,0.339 c-0.024,0.048,0,0.119,0.071,0.214c0.071,0.095,0.185,0.238,0.339,0.429c0.155,0.19,0.28,0.381,0.375,0.571 c0.929,1.619,0.845,2.714-0.25,3.285c0-1.095-0.083-1.934-0.25-2.518c-0.167-0.583-0.5-1.226-1-1.928 c-0.5-0.702-0.845-1.232-1.036-1.589c0.714-0.071,1.256-0.345,1.625-0.821c0.369-0.476,0.536-0.988,0.5-1.536 c-0.036-0.548-0.244-1-0.625-1.357c-0.214-0.214-1.321-1.125-3.321-2.732c-2-1.607-3.238-2.684-3.714-3.232 c-0.095-0.095-0.381-0.333-0.857-0.714c-0.476-0.381-0.774-0.714-0.893-1c-1.095-2.405-1.214-4.381-0.357-5.928L16.17,37 c0.119-0.024,0.131,0.19,0.036,0.643c-0.143,0.667-0.19,1.333-0.143,2c0.095,1.5,0.524,2.619,1.286,3.357 c0.5,0.5,0.845,0.464,1.036-0.107c0.143-0.19,0.208-0.893,0.196-2.107c-0.012-1.214,0.006-2.036,0.054-2.464 c0.19-1.357,0.756-3.036,1.696-5.035c0.94-2,1.684-3.071,2.232-3.214c-0.429-0.69-0.565-1.44-0.411-2.25 c0.155-0.81,0.405-1.5,0.75-2.071c0.345-0.571,0.696-1.232,1.053-1.982s0.536-1.423,0.536-2.018c0-0.167,0.012-0.286,0.036-0.357 c0.071-0.214,0.369,0.048,0.893,0.786c1,1.476,1.75,2.345,2.25,2.607c0.524,0.286,1.107,0.274,1.75-0.036s1.434-0.821,2.375-1.536 c0.94-0.714,1.744-1.238,2.411-1.571c0.071-0.024,0.185-0.077,0.339-0.161c0.155-0.083,0.274-0.143,0.357-0.179 s0.19-0.089,0.321-0.161c0.131-0.071,0.232-0.131,0.304-0.179c0.071-0.048,0.143-0.101,0.214-0.161 c0.071-0.06,0.119-0.119,0.143-0.179s0.036-0.113,0.036-0.161c-0.048-0.214-0.149-0.345-0.304-0.393 c-0.155-0.048-0.363-0.018-0.625,0.089c-0.262,0.107-0.554,0.25-0.875,0.429c-0.321,0.179-0.679,0.381-1.071,0.607 c-0.393,0.226-0.792,0.434-1.196,0.625s-0.833,0.357-1.286,0.5c-0.452,0.143-0.881,0.226-1.286,0.25 c-1,0.024-1.797-0.238-2.393-0.786c-0.381-0.357-0.583-0.583-0.607-0.679c-0.024-0.095,0.083-0.119,0.321-0.071 c1.286,0.167,2.226,0.19,2.821,0.071c0.619-0.095,1.452-0.369,2.5-0.821c0.214-0.095,0.756-0.327,1.625-0.696 c0.869-0.369,1.542-0.625,2.018-0.768c0.286-0.071,0.482-0.185,0.589-0.339c0.107-0.155,0.143-0.298,0.107-0.429 s-0.113-0.232-0.232-0.304c-0.262-0.143-0.5-0.048-0.714,0.286c-0.119,0.214-0.369,0.423-0.75,0.625 c-0.381,0.202-0.732,0.357-1.053,0.464s-0.732,0.232-1.232,0.375c-0.5,0.143-0.774,0.226-0.821,0.25 c-1.309,0.405-2.524,0.583-3.643,0.536c-0.524-0.024-0.946-0.101-1.268-0.232c-0.321-0.131-0.542-0.286-0.661-0.464 c-0.119-0.179-0.309-0.405-0.571-0.679c-0.262-0.274-0.56-0.506-0.893-0.696c-0.238-0.119-0.327-0.333-0.268-0.643 s0.244-0.631,0.554-0.964c0.024-0.024,0.268-0.173,0.732-0.446c0.464-0.274,0.792-0.554,0.982-0.839 c0.214-0.333,0.583-0.679,1.107-1.036c0.024-0.095,0.042-0.357,0.054-0.786s-0.101-0.893-0.339-1.393s-0.559-0.75-0.964-0.75 c-0.571-0.024-0.976,0.143-1.214,0.5s-0.345,0.798-0.321,1.321c0.024,0.452,0.137,0.851,0.339,1.196 c0.202,0.345,0.387,0.518,0.554,0.518c0.262-0.024,0.345,0.071,0.25,0.286c-0.143,0.262-0.333,0.429-0.571,0.5 c-0.167,0.048-0.351-0.113-0.554-0.482c-0.202-0.369-0.357-0.815-0.464-1.339c-0.107-0.524-0.149-0.964-0.125-1.321 c0.048-0.738,0.244-1.446,0.589-2.125s0.839-1.006,1.482-0.982c0.667,0.024,1.202,0.429,1.607,1.214s0.595,1.857,0.571,3.214 c0.071,0.167,0.256,0.226,0.554,0.179c0.298-0.048,0.69-0.054,1.179-0.018c0.488,0.036,0.839,0.161,1.053,0.375 c0.024,0,0.036-0.179,0.036-0.536c-0.429-3,0.631-4.595,3.178-4.785c0.381,0.071,0.702,0.161,0.964,0.268 c0.262,0.107,0.542,0.286,0.839,0.536c0.298,0.25,0.548,0.613,0.75,1.089c0.202,0.476,0.363,1.071,0.482,1.786v1.321 c0,0.762-0.155,1.19-0.464,1.286c-0.5,0.167-0.857,0.161-1.071-0.018c-0.214-0.179-0.19-0.494,0.071-0.946 c0.238-0.595,0.19-1.286-0.143-2.071c-0.333-0.786-0.94-1.143-1.821-1.071c-0.595,0.024-1.024,0.345-1.286,0.964 c-0.262,0.619-0.357,1.226-0.286,1.821c0.071,0.595,0.202,0.905,0.393,0.929c0.143,0.024,0.565,0.214,1.268,0.571 s1.232,0.571,1.589,0.643c0.928,0.19,1.458,0.488,1.589,0.893c0.131,0.405,0.077,0.994-0.161,1.768 c-0.238,0.774-0.31,1.411-0.214,1.911c0.095,0.524,0.274,1,0.536,1.428c0.262,0.429,0.542,0.821,0.839,1.178s0.649,1.024,1.054,2 c0.405,0.976,0.774,2.202,1.107,3.678c0.024,0.024,0.113,0.107,0.268,0.25c0.155,0.143,0.31,0.321,0.464,0.536 c0.155,0.214,0.339,0.506,0.554,0.875c0.214,0.369,0.446,0.911,0.696,1.625c0.25,0.714,0.482,1.536,0.696,2.464 c0.262,1.095,0.399,2.369,0.411,3.821s0.107,2.446,0.286,2.982c0.179,0.536,0.637,0.756,1.375,0.661 c0.929-0.048,1.524-0.548,1.786-1.5c0.786-2.762,0.143-6.071-1.928-9.928c-0.786-1.5-1.464-2.488-2.036-2.964 c0.833,0.476,1.69,1.369,2.571,2.678c0.881,1.309,1.44,2.536,1.678,3.678c0.024,0.119,0.089,0.435,0.196,0.946 c0.107,0.512,0.167,0.81,0.179,0.893s0.06,0.327,0.143,0.732c0.083,0.405,0.125,0.667,0.125,0.786 c0,0.119,0.012,0.351,0.036,0.696s0.018,0.613-0.018,0.804c-0.036,0.19-0.071,0.446-0.107,0.768 c-0.036,0.321-0.095,0.631-0.179,0.929s-0.173,0.625-0.268,0.982c1.309,0.571,1.964,1.071,1.964,1.5 c-0.5-0.405-1.214-0.673-2.143-0.803c-0.928-0.131-1.792-0.006-2.589,0.375s-1.208,1.012-1.232,1.893 c-0.857,0-1.464,0.214-1.821,0.643c-0.524,0.619-0.798,1.458-0.821,2.518c-0.024,1.059,0.065,2.214,0.268,3.464 C41.21,52.588,41.288,53.463,41.24,53.963z M26.277,12.573c-0.071-0.024-0.131-0.095-0.179-0.214c0-0.214,0.107-0.298,0.321-0.25 c0.143,0.048,0.28,0.226,0.411,0.536c0.131,0.309,0.161,0.667,0.089,1.071c0,0.071-0.036,0.107-0.107,0.107 c-0.262,0-0.357-0.238-0.286-0.714C26.598,12.751,26.515,12.573,26.277,12.573z M35.526,13.144l-0.071,0.107 c-0.19,0.119-0.286,0.143-0.286,0.071c-0.095-0.643-0.31-1.012-0.643-1.107l-0.143-0.071c-0.167-0.143-0.083-0.226,0.25-0.25 c0.071-0.024,0.179,0.012,0.321,0.107c0.143,0.095,0.274,0.244,0.393,0.446C35.467,12.65,35.526,12.882,35.526,13.144zM27.205,15.215c0,0.143,0.06,0.202,0.179,0.179c0.095,0,0.196-0.113,0.304-0.339 c0.107-0.226,0.292-0.351,0.554-0.375h-0.357C27.432,14.751,27.205,14.93,27.205,15.215zM30.312,14.787c0.238-0.071,0.446-0.018,0.625,0.161c0.179,0.179,0.315,0.256,0.411,0.232 c0.143-0.071,0.179-0.179,0.107-0.321C31.265,14.549,30.884,14.525,30.312,14.787z"/></g></svg>