<svg xmlns="http://www.w3.org/2000/svg" width="64" height="64" viewBox="0 0 64 64"><g fill="#040000"><path d="M21.978,38.058C22.319,36.855,23.383,36,24.664,36h5.835c11.463,0,20.438-4.659,23.06-18.127 c0.078-0.398,0.145-0.787,0.204-1.166c0,0,0-0.001,0-0.001c0.586-3.735,0.29-6.574-1.031-9.054 c-0.44-0.827-0.994-1.836-1.667-2.603C48.101,1.67,42.744,0,35.891,0H16.001c-1.402,0-2.594,1.242-2.813,2.624L4.907,55.087 C4.742,56.122,5.544,57,6.594,57H19v0.342L21.978,38.058zM57.838,20.832c-0.026-0.014-0.049-0.072-0.076-0.086c-0.06,0.381-0.126,0.749-0.204,1.147 C54.937,35.36,45.962,40,34.499,40h-5.837c-1.4,0-2.583,1.017-2.801,2.399l-2.988,18.722L22.384,64h7.467 c1.225,0,2.268-0.67,2.459-1.879l0.101-0.416l1.951-12.308l0.126-0.489C34.678,47.698,35.721,47,36.946,47h1.549 c10.027,0,17.878-4.24,20.173-16.021C59.437,27.025,59.247,23.525,57.838,20.832z"/></g></svg>