<?xml version="1.0" encoding="utf-8"?>
<!-- Generator: Adobe Illustrator 17.0.0, SVG Export Plug-In . SVG Version: 6.00 Build 0)  -->
<!DOCTYPE svg PUBLIC "-//W3C//DTD SVG 1.1//EN" "http://www.w3.org/Graphics/SVG/1.1/DTD/svg11.dtd">
<svg version="1.1" xmlns="http://www.w3.org/2000/svg" xmlns:xlink="http://www.w3.org/1999/xlink" x="0px" y="0px" width="64px"
	 height="64px" viewBox="0 0 64 64" enable-background="new 0 0 64 64" xml:space="preserve">
<g id="envato">
</g>
<g id="css3">
</g>
<g id="html5">
</g>
<g id="feed">
</g>
<g id="skype">
</g>
<g id="paypal">
	<g>
		<path d="M24.664,36h5.835c11.463,0,20.438-4.659,23.06-18.127c0.078-0.398,0.145-0.787,0.204-1.166c0,0,0-0.001,0-0.001
			c0.586-3.735,0.29-6.574-1.031-9.054c-0.44-0.827-0.994-1.836-1.667-2.603C48.101,1.671,42.744,0,35.891,0H16.001
			c-1.402,0-2.594,1.242-2.813,2.624L4.907,55.087C4.742,56.122,5.544,57,6.594,57H19v0.342l0,0l3.01-19.491l-0.117,0.548
			C22.112,37.017,23.263,36,24.664,36z"/>
		<path d="M57.838,20.832c-0.026-0.014-0.049-0.072-0.076-0.086c-0.06,0.381-0.126,0.749-0.204,1.147
			C54.937,35.36,45.962,40,34.499,40h-5.837c-1.4,0-2.583,1.017-2.801,2.399l-2.988,18.722L22.384,64h7.467
			c1.225,0,2.268-0.67,2.459-1.879l0.101-0.416l1.951-12.308l0.126-0.489C34.678,47.698,35.721,47,36.946,47h1.549
			c10.027,0,17.878-4.24,20.173-16.021C59.437,27.025,59.247,23.525,57.838,20.832z"/>
	</g>
</g>
<g id="evernote">
</g>
<g id="dropbox">
</g>
<g id="codepen">
</g>
<g id="jsfiddle">
</g>
<g id="medium">
</g>
<g id="squarespace">
</g>
<g id="joomla">
</g>
<g id="drupal">
</g>
<g id="wordpress">
</g>
<g id="linux">
</g>
<g id="windows">
</g>
<g id="apple">
</g>
<g id="android">
</g>
<g id="youtube">
</g>
<g id="yelp">
</g>
<g id="vine">
</g>
<g id="vimeo">
</g>
<g id="viadeo">
</g>
<g id="twitter">
</g>
<g id="tumblr">
</g>
<g id="stumbleupon">
</g>
<g id="spotify">
</g>
<g id="soundcloud">
</g>
<g id="reddit">
</g>
<g id="rdio">
</g>
<g id="quora">
</g>
<g id="pinterest">
</g>
<g id="linkedin">
</g>
<g id="lastfm">
</g>
<g id="instagram">
</g>
<g id="google-plus">
</g>
<g id="github">
</g>
<g id="foursquare">
</g>
<g id="flickr">
</g>
<g id="facebook">
</g>
<g id="dribbble">
</g>
<g id="deviantart">
</g>
<g id="delicious">
</g>
<g id="blogger">
</g>
<g id="behance">
</g>
</svg>
