<svg xmlns="http://www.w3.org/2000/svg" width="64" height="64" viewBox="0 0 64 64"><path fill="#040000" d="M33.5,0C16.034,0,7.228,12.522,7.228,22.964c0,6.323,2.394,11.948,7.528,14.044 c0.842,0.344,1.596,0.012,1.84-0.92c0.17-0.646,0.572-2.273,0.751-2.95c0.246-0.922,0.151-1.245-0.529-2.049 c-1.48-1.746-2.427-4.007-2.427-7.209c0-9.29,6.951-17.607,18.099-17.607c9.872,0,15.296,6.032,15.296,14.088 c0,10.599-4.691,19.545-11.655,19.545c-3.846,0-6.725-3.18-5.802-7.081c1.105-4.657,3.245-9.683,3.245-13.045 c0-3.009-1.615-5.519-4.958-5.519c-3.931,0-7.089,4.067-7.089,9.515c0,3.47,1.172,5.817,1.172,5.817s-4.023,17.046-4.728,20.031 c-1.405,5.945-0.211,13.234-0.11,13.97c0.059,0.436,0.62,0.54,0.874,0.21c0.362-0.473,5.045-6.254,6.637-12.03 c0.45-1.636,2.586-10.105,2.586-10.105c1.277,2.436,5.01,4.582,8.98,4.582c11.817,0,19.835-10.774,19.835-25.194 C56.772,10.155,47.537,0,33.5,0z"/></svg>