<svg xmlns="http://www.w3.org/2000/svg" width="64" height="64" viewBox="0 0 64 64"><path d="M57.686,32.509c-0.819-1.257-1.764-2.099-2.581-3.356c-0.127-0.681,0.139-1.192-0.051-2.982 c-0.182-2.684-1.124-3.725-1.322-4.054c0.085-0.714-0.188-6.598-2.232-10.078C45.263,0.431,33.452,0.008,32.007,0h-0.014 c-1.445,0.008-13.256,0.431-19.491,12.039c-2.045,3.48-2.317,9.364-2.232,10.078c-0.198,0.329-1.14,1.369-1.322,4.054 c-0.19,1.791,0.076,2.301-0.051,2.982c-0.818,1.257-1.764,2.099-2.582,3.356c-1.817,3.01-3.4,5.318-3.44,9.572 c-0.029,3.171,0.691,7.497,2.828,7.556c0.673-0.056,1.248-0.521,2.417-1.885c0.349-0.41,1.58-2.134,1.829-2.612 c0.24,0.66,0.808,5.262,4.781,7.659c-4.081,2.001-6.077,3.266-6.147,5.862c0.085,1.502,1.807,3.499,4.974,4.43 c3.989,1.161,8.628,1.187,12.49,0.216c2.283-0.574,2.971-1.149,5.954-2.858c2.984,1.709,3.671,2.285,5.954,2.858 c3.862,0.971,8.501,0.945,12.49-0.216c3.166-0.931,4.888-2.928,4.973-4.43c-0.07-2.596-2.066-3.862-6.147-5.862 c3.972-2.397,4.54-6.998,4.78-7.659c0.249,0.478,1.48,2.202,1.829,2.612c1.169,1.364,1.744,1.83,2.417,1.885 c2.138-0.059,2.858-4.385,2.829-7.556C61.086,37.826,59.502,35.518,57.686,32.509z"/></svg>