<svg xmlns="http://www.w3.org/2000/svg" width="64" height="64" viewBox="0 0 64 64"><path fill="#040000" d="M53.882,58.409c0.23,1.73,0.46,3.46,0.69,5.19c-9.37,1.69-11.65-2.19-16.24-6.92 c-21.97,6.86-39.2-15.26-32.84-36.29c2.64-8.7,9.09-15.53,17.28-18.66c2.88-0.58,5.77-1.15,8.65-1.73 c8.52,0.36,15.07,2.34,20.04,6.22c14.25,11.12,8.79,39.76-4.84,47.01c0.12,0.34,0.23,0.69,0.35,1.03 C48.972,56.509,50.022,57.879,53.882,58.409z M43.172,44.929c5.5-13.4,6.28-37.85-12.45-37.67c-3.49,1.6-6.52,2.31-8.64,5.18 c-5.97,8.11-6.16,30.36,2.08,35.95c2.92,1.98,7.13,1.96,11.4,1.73c-0.61-2.99-2.92-4.424-6.56-4.394 c-0.23-1.61-0.46-3.724-0.69-4.724c0.23,0,0.46,0,0.69,0c5.18-3,11.47,1.534,13.48,4.384 C42.712,45.264,42.942,45.049,43.172,44.929z"/></svg>