<?xml version="1.0" encoding="utf-8"?>
<!-- Generator: Adobe Illustrator 17.0.0, SVG Export Plug-In . SVG Version: 6.00 Build 0)  -->
<!DOCTYPE svg PUBLIC "-//W3C//DTD SVG 1.1//EN" "http://www.w3.org/Graphics/SVG/1.1/DTD/svg11.dtd">
<svg version="1.1" xmlns="http://www.w3.org/2000/svg" xmlns:xlink="http://www.w3.org/1999/xlink" x="0px" y="0px" width="64px"
	 height="64px" viewBox="0 0 64 64" enable-background="new 0 0 64 64" xml:space="preserve">
<g id="envato">
</g>
<g id="css3">
</g>
<g id="html5">
</g>
<g id="feed">
</g>
<g id="skype">
</g>
<g id="paypal">
</g>
<g id="evernote">
</g>
<g id="dropbox">
</g>
<g id="codepen">
</g>
<g id="jsfiddle">
</g>
<g id="medium">
</g>
<g id="squarespace">
</g>
<g id="joomla">
</g>
<g id="drupal">
</g>
<g id="wordpress">
</g>
<g id="linux">
</g>
<g id="windows">
</g>
<g id="apple">
</g>
<g id="android">
</g>
<g id="youtube">
</g>
<g id="yelp">
</g>
<g id="vine">
</g>
<g id="vimeo">
</g>
<g id="viadeo">
</g>
<g id="twitter">
</g>
<g id="tumblr">
</g>
<g id="stumbleupon">
</g>
<g id="spotify">
</g>
<g id="soundcloud">
</g>
<g id="reddit">
</g>
<g id="rdio">
</g>
<g id="quora">
	<path d="M53.57,58.409c0.23,1.73,0.46,3.46,0.69,5.19c-9.37,1.69-11.65-2.19-16.24-6.92c-21.97,6.86-39.2-15.26-32.84-36.29
		c2.64-8.7,9.09-15.53,17.28-18.66c2.88-0.58,5.77-1.15,8.65-1.73c8.52,0.36,15.07,2.34,20.04,6.22
		c14.25,11.12,8.79,39.76-4.84,47.01c0.12,0.34,0.23,0.69,0.35,1.03C48.66,56.509,49.71,57.879,53.57,58.409z M42.86,44.929
		c5.5-13.4,6.28-37.85-12.45-37.67c-3.49,1.6-6.52,2.31-8.64,5.18c-5.97,8.11-6.16,30.36,2.08,35.95c2.92,1.98,7.13,1.96,11.4,1.73
		c-0.61-2.99-2.92-4.424-6.56-4.394C28.46,44.114,28.23,42,28,41c0.23,0,0.46,0,0.69,0c5.18-3,11.47,1.534,13.48,4.384
		C42.4,45.264,42.63,45.049,42.86,44.929z"/>
</g>
<g id="pinterest">
</g>
<g id="linkedin">
</g>
<g id="lastfm">
</g>
<g id="instagram">
</g>
<g id="google-plus">
</g>
<g id="github">
</g>
<g id="foursquare">
</g>
<g id="flickr">
</g>
<g id="facebook">
</g>
<g id="dribbble">
</g>
<g id="deviantart">
</g>
<g id="delicious">
</g>
<g id="blogger">
</g>
<g id="behance">
</g>
</svg>
