<svg xmlns="http://www.w3.org/2000/svg" width="64" height="64" viewBox="0 0 64 64"><path fill="#040000" d="M62.376,17.496c-7.401,0.215-16.337-5.591-19.8-7.778c-0.321-0.202-0.649-0.39-0.98-0.559 c-0.363-0.202-0.738-0.388-1.112-0.575v21.364h-0.011c0.013,1.912-0.555,3.93-1.751,5.864l-0.104,0.171 c-3.46,5.594-10.74,8.855-17.568,6.549c-6.631-2.24-8.402-8.662-4.89-14.341l0.106-0.171c3.457-5.591,10.736-8.855,17.565-6.548 c0.526,0.177,1.012,0.389,1.474,0.619V6.64c-2.444-0.661-5.038-1.04-7.768-1.04C11.733,5.6,0,17.427,0,32v0.19 C0,46.762,11.638,58.4,27.346,58.4c15.802,0,27.536-11.828,27.536-26.4v-0.19c0-1.135-0.079-2.25-0.216-3.346 C62.897,26.319,66.291,17.802,62.376,17.496z"/></svg>