<?xml version="1.0" encoding="utf-8"?>
<!-- Generator: Adobe Illustrator 17.0.0, SVG Export Plug-In . SVG Version: 6.00 Build 0)  -->
<!DOCTYPE svg PUBLIC "-//W3C//DTD SVG 1.1//EN" "http://www.w3.org/Graphics/SVG/1.1/DTD/svg11.dtd">
<svg version="1.1" xmlns="http://www.w3.org/2000/svg" xmlns:xlink="http://www.w3.org/1999/xlink" x="0px" y="0px" width="64px"
	 height="64px" viewBox="0 0 64 64" enable-background="new 0 0 64 64" xml:space="preserve">
<g id="envato">
</g>
<g id="css3">
</g>
<g id="html5">
</g>
<g id="feed">
</g>
<g id="skype">
</g>
<g id="paypal">
</g>
<g id="evernote">
</g>
<g id="dropbox">
</g>
<g id="codepen">
</g>
<g id="jsfiddle">
</g>
<g id="medium">
</g>
<g id="squarespace">
</g>
<g id="joomla">
</g>
<g id="drupal">
</g>
<g id="wordpress">
</g>
<g id="linux">
</g>
<g id="windows">
</g>
<g id="apple">
</g>
<g id="android">
</g>
<g id="youtube">
</g>
<g id="yelp">
</g>
<g id="vine">
</g>
<g id="vimeo">
</g>
<g id="viadeo">
</g>
<g id="twitter">
</g>
<g id="tumblr">
</g>
<g id="stumbleupon">
</g>
<g id="spotify">
</g>
<g id="soundcloud">
</g>
<g id="reddit">
	<g>
		<path d="M64,31.407c0-3.91-3.181-7.09-7.09-7.09c-1.907,0-3.637,0.76-4.913,1.989c-4.823-3.184-11.339-5.235-18.561-5.496
			l0.127-0.401l3.815-12.061l10.381,2.444l0.303,0.071c-0.001,0.051-0.008,0.1-0.008,0.151c0,3.199,2.603,5.801,5.801,5.801
			s5.801-2.603,5.801-5.801s-2.602-5.801-5.801-5.801c-2.453,0-4.55,1.532-5.397,3.688L36.03,5.977l-4.686,14.813
			c-7.56,0.091-14.41,2.14-19.451,5.418c-1.265-1.169-2.949-1.89-4.803-1.89c-3.91,0-7.09,3.181-7.09,7.09
			c0,2.596,1.407,4.865,3.494,6.1c-0.135,0.747-0.212,1.505-0.212,2.276c0,10.478,12.823,19.003,28.585,19.003
			c15.762,0,28.585-8.525,28.585-19.003c0-0.721-0.067-1.432-0.185-2.133C62.488,36.451,64,34.103,64,31.407z M58.452,39.783
			c0,9.375-11.926,17.003-26.585,17.003S5.282,49.159,5.282,39.783S17.208,22.78,31.867,22.78S58.452,30.408,58.452,39.783z
			 M7.09,26.317c1.177,0,2.248,0.418,3.111,1.091c-2.95,2.279-5.099,5.025-6.163,8.047C2.808,34.525,2,33.065,2,31.407
			C2,28.601,4.284,26.317,7.09,26.317z M53.67,27.514c0.883-0.736,2.003-1.197,3.24-1.197c2.807,0,5.09,2.284,5.09,5.09
			c0,1.754-0.892,3.303-2.245,4.219C58.729,32.583,56.605,29.815,53.67,27.514z M57.656,11.015c0,2.096-1.705,3.801-3.801,3.801
			c-2.096,0-3.801-1.705-3.801-3.801c0-2.096,1.705-3.801,3.801-3.801C55.951,7.214,57.656,8.919,57.656,11.015z"/>
		<path d="M26.75,36.284c0-2.45-1.988-4.506-4.439-4.506c-2.45,0-4.506,2.055-4.506,4.506c0,2.45,2.055,4.438,4.506,4.438
			C24.762,40.723,26.75,38.734,26.75,36.284z"/>
		<path d="M41.756,31.778c-2.451,0-4.511,2.054-4.511,4.506s2.06,4.438,4.511,4.438s4.438-1.987,4.438-4.438
			S44.207,31.778,41.756,31.778z"/>
		<path d="M32,49.937c-4,0-7.074-0.841-8.805-2.572l-1.405,1.414C23.915,50.903,27,51.937,32,51.937V49.937z"/>
		<path d="M32,49.937v2c5,0,8.093-1.033,10.22-3.158l-1.422-1.415C39.066,49.095,36,49.937,32,49.937z"/>
	</g>
</g>
<g id="rdio">
</g>
<g id="quora">
</g>
<g id="pinterest">
</g>
<g id="linkedin">
</g>
<g id="lastfm">
</g>
<g id="instagram">
</g>
<g id="google-plus">
</g>
<g id="github">
</g>
<g id="foursquare">
</g>
<g id="flickr">
</g>
<g id="facebook">
</g>
<g id="dribbble">
</g>
<g id="deviantart">
</g>
<g id="delicious">
</g>
<g id="blogger">
</g>
<g id="behance">
</g>
</svg>
