<svg xmlns="http://www.w3.org/2000/svg" width="64" height="64" viewBox="0 0 64 64"><path fill="#040000" d="M1.741,42.741c-0.032,0.114-0.196,0.194-0.398,0.194c-0.204,0-0.372-0.082-0.399-0.195L0,38.524l0.944-4.31 c0.027-0.112,0.195-0.194,0.399-0.194c0.202,0,0.366,0.079,0.399,0.194l1.074,4.311 M6.911,31.166c-0.298,0-0.54,0.159-0.564,0.369 L5.5,38.542l0.847,6.779c0.024,0.21,0.266,0.368,0.564,0.368c0.294,0,0.536-0.159,0.562-0.368l0.962-6.779l-0.962-7.008 C7.446,31.325,7.204,31.166,6.911,31.166z M11.125,45.378L11.125,45.378c0-0.001,0-0.001,0-0.001L11.125,45.378z M12.477,28.491 c-0.388,0-0.707,0.211-0.727,0.48L11,38.545l0.751,6.834c0.02,0.267,0.339,0.478,0.727,0.478c0.385,0,0.704-0.211,0.726-0.479 v0.002l0.849-6.834l-0.849-9.575C13.181,28.701,12.862,28.491,12.477,28.491z M18.044,23.881c-0.483,0-0.874,0.259-0.891,0.59 L16.5,38.548l0.654,6.721c0.017,0.327,0.408,0.586,0.891,0.586c0.48,0,0.871-0.258,0.891-0.589l0,0.004l0.738-6.723L18.935,24.47 C18.915,24.14,18.524,23.881,18.044,23.881z M21.771,45.225L21.771,45.225l0,0.004L21.771,45.225z M23.612,23.67 c-0.578,0-1.042,0.307-1.055,0.699L22,38.55l0.557,6.616c0.013,0.389,0.476,0.696,1.054,0.696c0.576,0,1.038-0.308,1.054-0.7v0.005 l0.626-6.617l-0.626-14.181C24.65,23.977,24.187,23.67,23.612,23.67z M29.851,21.622c-0.194-0.087-0.425-0.139-0.673-0.139 c-0.241,0-0.466,0.049-0.656,0.132c-0.332,0.145-0.555,0.394-0.562,0.678l-0.004,0.153L27.5,38.548c0,0.01,0.46,6.536,0.46,6.536 c0,0.009,0.002,0.019,0.003,0.028c0.014,0.182,0.118,0.35,0.284,0.483c0.224,0.179,0.56,0.294,0.932,0.294 c0.33,0,0.632-0.091,0.853-0.237c0.22-0.146,0.36-0.348,0.366-0.571l0.051-0.646l0.462-5.881l-0.513-16.26 C30.39,22.014,30.173,21.768,29.851,21.622z M29.973,45.082l0-0.002l0,0l0,0.002l0,0.003L29.973,45.082l0,0.002L29.973,45.082z M56.129,30.16c-1.079,0-2.108,0.219-3.045,0.611c-0.626-7.094-6.576-12.659-13.833-12.659c-1.776,0-3.507,0.349-5.036,0.941 c-0.594,0.23-0.752,0.466-0.758,0.926v24.984c0.006,0.482,0.38,0.856,0.85,0.903c0.02,0.002,21.821,0,21.821,0 c4.347,0,7.871-3.485,7.871-7.833C64,33.685,60.476,30.16,56.129,30.16z"/></svg>