<svg xmlns="http://www.w3.org/2000/svg" width="64" height="64" viewBox="0 0 64 64"><path fill="#040000" d="M51.747,51.728c-0.901,1.351-2.477,1.802-3.828,0.901c-10.585-6.531-23.871-7.882-39.636-4.279 c-1.576,0.45-2.928-0.676-3.378-2.027c-0.45-1.576,0.676-2.928,2.027-3.378c17.115-3.828,31.979-2.252,43.689,4.954 C52.197,48.576,52.423,50.377,51.747,51.728z M57.152,39.342c-1.126,1.576-3.153,2.252-4.729,1.126 c-12.161-7.432-30.627-9.684-44.815-5.18c-1.802,0.45-3.828-0.45-4.279-2.252c-0.45-1.802,0.45-3.828,2.252-4.279 c16.44-4.954,36.708-2.477,50.67,6.08C57.602,35.514,58.278,37.766,57.152,39.342z M57.602,26.731 c-14.413-8.558-38.51-9.458-52.247-5.18c-2.252,0.676-4.504-0.676-5.18-2.702c-0.676-2.252,0.676-4.504,2.702-5.18 c15.989-4.729,42.338-3.828,59.003,6.08c2.027,1.126,2.702,3.828,1.576,5.855C62.332,27.181,59.629,27.857,57.602,26.731z"/></svg>