<svg xmlns="http://www.w3.org/2000/svg" width="64" height="64" viewBox="0 0 64 64"><g fill="#231815"><path d="M10.167,34.183c1.206,1.206,3.161,1.206,4.366,0l19.651-19.649c2.411-2.412,6.321-2.412,8.731,0 c1.208,1.206,3.162,1.206,4.367,0c1.206-1.206,1.206-3.161,0-4.367c-4.824-4.824-12.642-4.824-17.466,0L10.167,29.817 C8.962,31.022,8.962,32.978,10.167,34.183zM40.732,21.084c1.206-1.206,1.206-3.161,0-4.367s-3.161-1.206-4.366,0l-19.649,19.65 c-2.413,2.411-6.322,2.411-8.733,0c-2.413-2.411-2.413-6.321,0-8.734L27.256,8.362c-2.411-2.412-6.322-2.412-8.733,0L3.617,23.267 c-4.823,4.824-4.823,12.643,0,17.467c4.824,4.824,12.643,4.824,17.466,0L40.732,21.084zM60.383,23.267c-4.824-4.823-12.644-4.823-17.466,0l-19.651,19.65c-1.206,1.205-1.206,3.161,0,4.366 c1.207,1.206,3.162,1.206,4.367,0l19.649-19.649c2.411-2.412,6.322-2.412,8.733,0c2.411,2.411,2.411,6.321,0,8.732L36.744,55.638 c2.411,2.411,6.32,2.411,8.733,0l14.906-14.905C65.206,35.909,65.206,28.091,60.383,23.267zM53.833,29.817c-1.206-1.205-3.162-1.205-4.368,0L29.816,49.466c-2.411,2.411-6.322,2.411-8.733,0 c-1.206-1.205-3.16-1.205-4.366,0c-1.208,1.206-1.208,3.161,0,4.366c4.822,4.824,12.642,4.824,17.466,0l19.649-19.649 C55.038,32.978,55.038,31.022,53.833,29.817z"/></g></svg>