<?xml version="1.0" encoding="utf-8"?>
<!-- Generator: Adobe Illustrator 17.0.0, SVG Export Plug-In . SVG Version: 6.00 Build 0)  -->
<!DOCTYPE svg PUBLIC "-//W3C//DTD SVG 1.1//EN" "http://www.w3.org/Graphics/SVG/1.1/DTD/svg11.dtd">
<svg version="1.1" xmlns="http://www.w3.org/2000/svg" xmlns:xlink="http://www.w3.org/1999/xlink" x="0px" y="0px" width="64px"
	 height="64px" viewBox="0 0 64 64" enable-background="new 0 0 64 64" xml:space="preserve">
<g id="envato">
</g>
<g id="css3">
</g>
<g id="html5">
</g>
<g id="feed">
</g>
<g id="skype">
</g>
<g id="paypal">
</g>
<g id="evernote">
</g>
<g id="dropbox">
</g>
<g id="codepen">
</g>
<g id="jsfiddle">
</g>
<g id="medium">
</g>
<g id="squarespace">
	<path fill="#231815" d="M60.383,23.267c-4.824-4.823-12.644-4.823-17.466,0l-19.651,19.65c-1.206,1.205-1.206,3.161,0,4.366
		c1.207,1.206,3.162,1.206,4.367,0l19.649-19.649c2.411-2.412,6.322-2.412,8.733,0c2.411,2.411,2.411,6.321,0,8.732L36.744,55.639
		c2.411,2.411,6.32,2.411,8.733,0l14.906-14.905C65.206,35.909,65.206,28.091,60.383,23.267z M53.833,29.817
		c-1.206-1.205-3.162-1.205-4.368,0L29.816,49.466c-2.411,2.411-6.322,2.411-8.733,0c-1.206-1.205-3.16-1.205-4.366,0
		c-1.207,1.206-1.207,3.161,0,4.366c4.822,4.824,12.642,4.824,17.466,0l19.649-19.649C55.038,32.978,55.038,31.022,53.833,29.817z
		 M47.282,10.168c-4.824-4.824-12.642-4.824-17.466,0L10.167,29.817c-1.205,1.205-1.205,3.161,0,4.366
		c1.206,1.206,3.161,1.206,4.366,0l19.651-19.649c2.411-2.412,6.321-2.412,8.731,0c1.207,1.206,3.162,1.206,4.367,0
		C48.488,13.328,48.488,11.374,47.282,10.168z M40.732,16.717c-1.206-1.206-3.161-1.206-4.366,0l-19.649,19.65
		c-2.413,2.411-6.322,2.411-8.733,0c-2.413-2.411-2.413-6.321,0-8.734L27.256,8.362c-2.411-2.412-6.322-2.412-8.733,0L3.617,23.267
		c-4.823,4.824-4.823,12.643,0,17.467c4.824,4.824,12.642,4.824,17.466,0l19.649-19.65C41.938,19.878,41.938,17.923,40.732,16.717z"
		/>
</g>
<g id="joomla">
</g>
<g id="drupal">
</g>
<g id="wordpress">
</g>
<g id="linux">
</g>
<g id="windows">
</g>
<g id="apple">
</g>
<g id="android">
</g>
<g id="youtube">
</g>
<g id="yelp">
</g>
<g id="vine">
</g>
<g id="vimeo">
</g>
<g id="viadeo">
</g>
<g id="twitter">
</g>
<g id="tumblr">
</g>
<g id="stumbleupon">
</g>
<g id="spotify">
</g>
<g id="soundcloud">
</g>
<g id="reddit">
</g>
<g id="rdio">
</g>
<g id="quora">
</g>
<g id="pinterest">
</g>
<g id="linkedin">
</g>
<g id="lastfm">
</g>
<g id="instagram">
</g>
<g id="google-plus">
</g>
<g id="github">
</g>
<g id="foursquare">
</g>
<g id="flickr">
</g>
<g id="facebook">
</g>
<g id="dribbble">
</g>
<g id="deviantart">
</g>
<g id="delicious">
</g>
<g id="blogger">
</g>
<g id="behance">
</g>
</svg>
