<svg xmlns="http://www.w3.org/2000/svg" width="64" height="64" viewBox="0 0 64 64"><g><path d="M14.783 50.049H40.042V55.444H14.783z"/><path transform="matrix(.985 -.171 .171 .985 -1.436 9.132)" d="M49.596 0.275H54.991V25.532999999999998H49.596z"/><path transform="matrix(.996 .092 -.092 .996 4.215 -2.365)" d="M15.199 41.956H40.457V47.351H15.199z"/><path transform="matrix(.966 .26 -.26 .966 10.202 -6.422)" d="M16.785 32.715H42.044V38.11H16.785z"/><path transform="matrix(.861 .508 -.508 .861 17.728 -13.309)" d="M20.616 23.125H45.875V28.52H20.616z"/><path transform="matrix(-.563 -.826 .826 -.563 50.632 61.198)" d="M28.855 14.525H54.115V19.919H28.855z"/><path d="M44.333,59.747H11.203V37.692H6.888v26.287H6.93C6.93,64,8.19,64,8.19,64h40.416v-0.021c0.043,0,0.043-1.26,0.043-1.26 V37.692h-4.315V59.747z"/></g></svg>