<?xml version="1.0" encoding="utf-8"?>
<!-- Generator: Adobe Illustrator 17.0.0, SVG Export Plug-In . SVG Version: 6.00 Build 0)  -->
<!DOCTYPE svg PUBLIC "-//W3C//DTD SVG 1.1//EN" "http://www.w3.org/Graphics/SVG/1.1/DTD/svg11.dtd">
<svg version="1.1" xmlns="http://www.w3.org/2000/svg" xmlns:xlink="http://www.w3.org/1999/xlink" x="0px" y="0px" width="64px"
	 height="64px" viewBox="0 0 64 64" enable-background="new 0 0 64 64" xml:space="preserve">
<g id="envato">
</g>
<g id="css3">
</g>
<g id="html5">
</g>
<g id="feed">
</g>
<g id="skype">
</g>
<g id="paypal">
</g>
<g id="evernote">
</g>
<g id="dropbox">
</g>
<g id="codepen">
</g>
<g id="jsfiddle">
</g>
<g id="medium">
</g>
<g id="squarespace">
</g>
<g id="joomla">
</g>
<g id="drupal">
</g>
<g id="wordpress">
</g>
<g id="linux">
</g>
<g id="windows">
</g>
<g id="apple">
</g>
<g id="android">
</g>
<g id="youtube">
</g>
<g id="yelp">
</g>
<g id="vine">
</g>
<g id="vimeo">
</g>
<g id="viadeo">
</g>
<g id="twitter">
</g>
<g id="tumblr">
</g>
<g id="stumbleupon">
	<path d="M0,42.133v-8.867h10.933v8.733c0,0.956,0.333,1.761,1,2.416c0.666,0.655,1.466,0.983,2.4,0.984
		c0.933,0.001,1.733-0.327,2.4-0.984c0.666-0.656,1-1.462,1-2.416V21.332c0-3.8,1.406-7.045,4.217-9.734s6.161-4.034,10.05-4.033
		c3.911,0,7.267,1.356,10.067,4.067c2.8,2.711,4.2,5.978,4.2,9.8v4.533l-6.5,1.933l-4.367-2.034v-3.933c0-0.933-0.333-1.733-1-2.4
		c-0.666-0.666-1.466-1-2.4-1s-1.733,0.333-2.4,1c-0.666,0.666-1,1.466-1,2.4v20.4c0,3.889-1.4,7.211-4.2,9.967
		c-2.8,2.756-6.167,4.134-10.1,4.134c-3.956,0-7.328-1.394-10.117-4.183C1.395,49.461,0.001,46.088,0,42.133L0,42.133z
		 M35.401,42.266v-8.933l4.367,2.034l6.5-1.933v9c0,0.933,0.333,1.728,1,2.384c0.666,0.656,1.466,0.984,2.4,0.984
		c0.933,0,1.733-0.328,2.4-0.984c0.666-0.656,1-1.45,1-2.384v-9.166H64v8.867c0,3.956-1.394,7.328-4.183,10.117
		c-2.789,2.789-6.161,4.183-10.117,4.183c-3.933,0-7.3-1.383-10.1-4.15c-2.8-2.766-4.2-6.105-4.2-10.017L35.401,42.266z"/>
</g>
<g id="spotify">
</g>
<g id="soundcloud">
</g>
<g id="reddit">
</g>
<g id="rdio">
</g>
<g id="quora">
</g>
<g id="pinterest">
</g>
<g id="linkedin">
</g>
<g id="lastfm">
</g>
<g id="instagram">
</g>
<g id="google-plus">
</g>
<g id="github">
</g>
<g id="foursquare">
</g>
<g id="flickr">
</g>
<g id="facebook">
</g>
<g id="dribbble">
</g>
<g id="deviantart">
</g>
<g id="delicious">
</g>
<g id="blogger">
</g>
<g id="behance">
</g>
</svg>
