<svg xmlns="http://www.w3.org/2000/svg" width="64" height="64" viewBox="0 0 64 64"><path fill="#040000" d="M64,12.151c-2.355,1.044-4.885,1.75-7.541,2.068c2.711-1.625,4.793-4.198,5.773-7.264 c-2.537,1.505-5.347,2.597-8.338,3.186c-2.395-2.552-5.808-4.147-9.584-4.147c-7.252,0-13.131,5.879-13.131,13.13 c0,1.029,0.116,2.031,0.34,2.992C20.607,21.569,10.932,16.342,4.455,8.398c-1.13,1.939-1.778,4.195-1.778,6.601 c0,4.555,2.318,8.574,5.841,10.929c-2.152-0.068-4.177-0.659-5.947-1.642c-0.001,0.055-0.001,0.11-0.001,0.165 c0,6.362,4.526,11.669,10.533,12.875c-1.102,0.3-2.262,0.46-3.459,0.46c-0.846,0-1.669-0.082-2.47-0.235 c1.671,5.216,6.52,9.013,12.266,9.119C14.945,50.191,9.284,52.29,3.132,52.29c-1.06,0-2.105-0.062-3.132-0.183 c5.811,3.725,12.713,5.899,20.128,5.899c24.152,0,37.359-20.008,37.359-37.359c0-0.569-0.013-1.136-0.038-1.699 C60.013,17.097,62.24,14.784,64,12.151z"/></svg>