<?xml version="1.0" encoding="utf-8"?>
<!-- Generator: Adobe Illustrator 17.0.0, SVG Export Plug-In . SVG Version: 6.00 Build 0)  -->
<!DOCTYPE svg PUBLIC "-//W3C//DTD SVG 1.1//EN" "http://www.w3.org/Graphics/SVG/1.1/DTD/svg11.dtd">
<svg version="1.1" xmlns="http://www.w3.org/2000/svg" xmlns:xlink="http://www.w3.org/1999/xlink" x="0px" y="0px" width="64px"
	 height="64px" viewBox="0 0 64 64" enable-background="new 0 0 64 64" xml:space="preserve">
<g id="envato">
</g>
<g id="css3">
</g>
<g id="html5">
</g>
<g id="feed">
</g>
<g id="skype">
</g>
<g id="paypal">
</g>
<g id="evernote">
</g>
<g id="dropbox">
</g>
<g id="codepen">
</g>
<g id="jsfiddle">
</g>
<g id="medium">
</g>
<g id="squarespace">
</g>
<g id="joomla">
</g>
<g id="drupal">
</g>
<g id="wordpress">
</g>
<g id="linux">
</g>
<g id="windows">
</g>
<g id="apple">
</g>
<g id="android">
</g>
<g id="youtube">
</g>
<g id="yelp">
</g>
<g id="vine">
</g>
<g id="vimeo">
	<path d="M63.969,17.122c-0.286,6.232-4.637,14.766-13.053,25.597C42.215,54.033,34.853,59.69,28.831,59.69
		c-3.729,0-6.888-3.444-9.466-10.336c-1.722-6.316-3.444-12.633-5.166-18.948C12.284,23.518,10.23,20.07,8.034,20.07
		c-0.479,0-2.155,1.008-5.023,3.016L0,19.205c3.158-2.776,6.274-5.552,9.34-8.332c4.212-3.641,7.375-5.556,9.483-5.749
		c4.981-0.479,8.047,2.927,9.197,10.218c1.243,7.866,2.104,12.758,2.587,14.673c1.436,6.526,3.015,9.786,4.741,9.786
		c1.34,0,3.351-2.117,6.035-6.35c2.679-4.233,4.116-7.454,4.309-9.668c0.382-3.654-1.054-5.485-4.309-5.485
		c-1.533,0-3.112,0.353-4.737,1.05C39.792,9.042,45.801,4.036,54.671,4.322C61.248,4.515,64.347,8.782,63.969,17.122z"/>
</g>
<g id="viadeo">
</g>
<g id="twitter">
</g>
<g id="tumblr">
</g>
<g id="stumbleupon">
</g>
<g id="spotify">
</g>
<g id="soundcloud">
</g>
<g id="reddit">
</g>
<g id="rdio">
</g>
<g id="quora">
</g>
<g id="pinterest">
</g>
<g id="linkedin">
</g>
<g id="lastfm">
</g>
<g id="instagram">
</g>
<g id="google-plus">
</g>
<g id="github">
</g>
<g id="foursquare">
</g>
<g id="flickr">
</g>
<g id="facebook">
</g>
<g id="dribbble">
</g>
<g id="deviantart">
</g>
<g id="delicious">
</g>
<g id="blogger">
</g>
<g id="behance">
</g>
</svg>
