<svg xmlns="http://www.w3.org/2000/svg" width="64" height="64" viewBox="0 0 64 64"><path fill="#040000" d="M59,31.138c-2,0.579-3.706,0.869-5.359,0.842c-9.273-0.142-13.336-6.098-13.336-15.624 c0-4.668,2.318-7.52,4.873-7.52c2.426,0,4.331,2.154,4.331,6.574c0,2.55-0.584,5.317-1.083,6.934 c1.557,2.741,3.73,3.869,8.55,2.993c1.555-3.172,2.413-6.997,2.413-10.734c0-9.521-5.335-14.601-14.237-14.601 c-9.151,0-14.621,7.347-14.621,16.623c0,9.188,4.546,16.657,11.628,20.249c-2.976,5.96-7.291,12.178-11.242,16.132 C23.717,44.301,17.668,32,15.026,9H4.611c3.915,37,18.867,51.703,22.727,54.005c2.178,1.309,4.054,1.288,6.047,0.164 c3.128-1.779,12.571-12.833,17.775-23.832C53.49,39.331,56,38.96,59,38.169V31.138z"/></svg>