<svg xmlns="http://www.w3.org/2000/svg" width="64" height="64" viewBox="0 0 64 64"><path fill-rule="evenodd" clip-rule="evenodd" fill="#231815" d="M63.429,46.312c-0.173-0.287-1.235-2.6-6.355-7.353 c-5.359-4.974-4.641-4.169,1.815-12.774c3.931-5.24,5.503-8.439,5.012-9.809c-0.468-1.305-3.36-0.96-3.36-0.96l-9.623,0.06 c0,0-0.714-0.097-1.243,0.219c-0.517,0.309-0.849,1.032-0.849,1.032s-1.524,4.055-3.554,7.503 c-4.285,7.276-5.999,7.661-6.699,7.209c-1.63-1.053-1.222-4.23-1.222-6.487c0-7.052,1.07-9.992-2.083-10.753 c-1.046-0.253-1.816-0.42-4.492-0.447c-3.434-0.035-6.34,0.01-7.985,0.816c-1.095,0.536-1.939,1.731-1.425,1.8 c0.636,0.085,2.076,0.389,2.84,1.428c0.987,1.342,0.952,4.355,0.952,4.355s0.567,8.301-1.323,9.332 c-1.297,0.707-3.076-0.737-6.897-7.338c-1.957-3.381-3.435-7.119-3.435-7.119s-0.285-0.698-0.793-1.072 c-0.617-0.453-1.478-0.596-1.478-0.596l-9.145,0.06c0,0-1.373,0.038-1.877,0.635c-0.449,0.531-0.036,1.629-0.036,1.629 s7.159,16.75,15.266,25.19c7.434,7.74,15.874,7.232,15.874,7.232h3.825c0,0,1.155-0.127,1.746-0.763 c0.543-0.584,0.526-1.68,0.526-1.68s-0.075-5.133,2.307-5.889c2.349-0.745,5.365,4.961,8.561,7.155 c2.417,1.66,4.254,1.297,4.254,1.297l8.547-0.119C61.079,50.103,65.55,49.827,63.429,46.312z"/></svg>