<svg xmlns="http://www.w3.org/2000/svg" width="64" height="64" viewBox="0 0 64 64"><g><path d="M23.384,38.017c2.205-12.699,15.204-16.649,22.328-15.974C43.745,12.873,35.2,5.241,22.875,5.055 C10.382,4.867,0,14.05,0,24.88c0,6.252,2.94,11.675,8.63,15.657c0,0-2.086,6.884-2.056,7.022c0.03,0.138,0.484,0.41,0.641,0.321 c0.158-0.089,7.539-4.491,7.539-4.491c5.657,1.942,8.954,1.296,9.143,1.283C23.333,43.018,22.963,40.444,23.384,38.017z M32.156,15.478c1.639,0,2.968,1.329,2.968,2.969c0,1.64-1.329,2.969-2.968,2.969c-1.639,0-2.967-1.329-2.967-2.969 C29.189,16.807,30.517,15.478,32.156,15.478z M14.191,21.415c-1.639,0-2.967-1.329-2.967-2.969c0-1.64,1.328-2.969,2.967-2.969 c1.639,0,2.968,1.329,2.968,2.969C17.159,20.086,15.83,21.415,14.191,21.415zM64,39.95c0-9.278-8.971-16.385-19.377-16.385c-11.019,0-19.808,7.267-19.808,16.545c0,9.294,8.359,16.989,19.82,17.052 c2.307,0.013,5.743-0.58,8.059-1.548c0,0,5.538,3.359,5.849,3.334c0.31-0.025,0.469-0.271,0.481-0.481s-1.765-5.453-1.765-5.453 C62.016,49.288,64,45.183,64,39.95z M37.37,36.525c-1.45,0-2.625-1.178-2.625-2.631c0-1.453,1.175-2.631,2.625-2.631 c1.45,0,2.625,1.178,2.625,2.631C39.995,35.347,38.82,36.525,37.37,36.525z M51.409,36.525c-1.45,0-2.625-1.178-2.625-2.631 c0-1.453,1.175-2.631,2.625-2.631c1.45,0,2.626,1.178,2.626,2.631C54.034,35.347,52.859,36.525,51.409,36.525z"/></g></svg>