<svg xmlns="http://www.w3.org/2000/svg" width="64" height="64" viewBox="0 0 64 64"><path d="M48.672,31.095c-0.913-0.271-1.539-0.454-1.06-1.639c1.035-2.572,1.142-4.791,0.02-6.374 c-2.104-2.97-7.858-2.809-14.455-0.08c0-0.004-2.071,0.896-1.542-0.728c1.015-3.224,0.862-5.924-0.717-7.482 c-3.579-3.539-13.096,0.133-21.257,8.196C3.549,29.028,0,35.431,0,40.966c0,10.588,13.74,17.025,27.182,17.025 c17.621,0,29.343-10.116,29.343-18.15C56.524,34.988,52.388,32.234,48.672,31.095z M27.218,54.195 C16.492,55.242,7.233,50.45,6.536,43.491c-0.022-0.217-0.035-0.435-0.04-0.651c-0.146-6.706,7.811-12.828,18.201-13.844 c10.727-1.048,19.986,3.743,20.682,10.699c0.006,0.058,0.006,0.115,0.01,0.173C45.935,46.764,37.856,53.156,27.218,54.195zM28.163,34.151c-5.107-1.302-10.88,1.191-13.098,5.601c-2.259,4.495-0.075,9.486,5.085,11.119 c5.345,1.688,11.645-0.9,13.835-5.752C36.145,40.373,33.448,35.488,28.163,34.151z M24.263,45.635 c-1.038,1.621-3.261,2.332-4.936,1.583c-1.65-0.735-2.137-2.621-1.099-4.202c1.025-1.576,3.174-2.278,4.835-1.595 C24.745,42.122,25.282,43.994,24.263,45.635z M27.682,41.333c-0.375,0.629-1.205,0.931-1.855,0.669 c-0.639-0.257-0.839-0.959-0.476-1.578c0.374-0.615,1.171-0.915,1.809-0.666C27.808,39.988,28.041,40.7,27.682,41.333zM59.679,11.771c-4.16-4.802-10.298-6.632-15.962-5.378h-0.002c-1.311,0.292-2.146,1.634-1.866,2.996 c0.28,1.363,1.569,2.234,2.88,1.943c4.03-0.891,8.39,0.412,11.349,3.823c2.955,3.41,3.757,8.062,2.492,12.14l0.001,0.001 c-0.412,1.329,0.285,2.749,1.563,3.179c1.272,0.429,2.641-0.297,3.054-1.622c0-0.003,0-0.007,0.001-0.01 C64.964,23.106,63.841,16.567,59.679,11.771zM52.366,27.491c1.097,0.366,2.275-0.258,2.628-1.401c0.868-2.795,0.326-5.979-1.704-8.318 c-2.025-2.338-5.016-3.226-7.776-2.616c-1.128,0.25-1.847,1.406-1.605,2.581c0.242,1.17,1.351,1.923,2.477,1.667v0.002 c1.349-0.297,2.812,0.136,3.802,1.277c0.992,1.143,1.258,2.702,0.832,4.068h0.002C50.668,25.893,51.268,27.12,52.366,27.491z"/></svg>