<?xml version="1.0" encoding="utf-8"?>
<!-- Generator: Adobe Illustrator 17.0.0, SVG Export Plug-In . SVG Version: 6.00 Build 0)  -->
<!DOCTYPE svg PUBLIC "-//W3C//DTD SVG 1.1//EN" "http://www.w3.org/Graphics/SVG/1.1/DTD/svg11.dtd">
<svg version="1.1" xmlns="http://www.w3.org/2000/svg" xmlns:xlink="http://www.w3.org/1999/xlink" x="0px" y="0px" width="64px"
	 height="64px" viewBox="0 0 64 64" enable-background="new 0 0 64 64" xml:space="preserve">
<g id="envato">
</g>
<g id="css3">
</g>
<g id="html5">
</g>
<g id="feed">
</g>
<g id="skype">
</g>
<g id="paypal">
</g>
<g id="evernote">
</g>
<g id="dropbox">
</g>
<g id="codepen">
</g>
<g id="jsfiddle">
</g>
<g id="medium">
</g>
<g id="squarespace">
</g>
<g id="joomla">
</g>
<g id="drupal">
</g>
<g id="wordpress">
</g>
<g id="linux">
</g>
<g id="windows">
</g>
<g id="apple">
</g>
<g id="android">
</g>
<g id="youtube">
	<path d="M64,28.832v4.858c0,5.181-0.382,10.362-0.382,10.362s-0.497,4.412-2.417,6.355c-2.435,2.551-5.1,2.563-6.351,2.712
		c-4.48,0.324-10.051,0.491-14.535,0.577c-4.483,0.086-7.831,0.091-7.831,0.091s-16.639-0.152-21.761-0.643
		c-1.425-0.267-4.62-0.186-7.056-2.737c-1.919-1.943-2.785-6.355-2.785-6.355S0,38.871,0,33.69v-4.858
		C0,23.65,0.883,18.47,0.883,18.47s0.746-4.412,2.666-6.355c2.436-2.55,5.225-1.94,6.476-2.089C18.986,9.377,32.486,10,32.486,10
		h0.028c0,0,13.44-0.623,22.4,0.025c1.252,0.149,3.981-0.149,6.416,2.401c1.919,1.943,2.288,6.2,2.288,6.2S64,23.65,64,28.832z
		 M25.89,39.576l17.298-8.964l-17.301-9.026L25.89,39.576z"/>
</g>
<g id="yelp">
</g>
<g id="vine">
</g>
<g id="vimeo">
</g>
<g id="viadeo">
</g>
<g id="twitter">
</g>
<g id="tumblr">
</g>
<g id="stumbleupon">
</g>
<g id="spotify">
</g>
<g id="soundcloud">
</g>
<g id="reddit">
</g>
<g id="rdio">
</g>
<g id="quora">
</g>
<g id="pinterest">
</g>
<g id="linkedin">
</g>
<g id="lastfm">
</g>
<g id="instagram">
</g>
<g id="google-plus">
</g>
<g id="github">
</g>
<g id="foursquare">
</g>
<g id="flickr">
</g>
<g id="facebook">
</g>
<g id="dribbble">
</g>
<g id="deviantart">
</g>
<g id="delicious">
</g>
<g id="blogger">
</g>
<g id="behance">
</g>
</svg>
