<svg xmlns="http://www.w3.org/2000/svg" width="64" height="64" viewBox="0 0 64 64"><path fill="#040000" d="M63.512,19.103c0,0-0.474-4.141-2.394-6.084c-2.435-2.55-5.164-3.02-6.416-3.169H9.841 c-1.252,0.149-4.014,0.076-6.45,2.626c-1.919,1.943-2.613,6.356-2.613,6.356S0,24.013,0,29.194v4.858 c0,5.181,0.777,10.362,0.777,10.362s0.761,4.412,2.68,6.355c2.436,2.551,5.633,2.47,7.058,2.737 c5.122,0.491,21.765,0.643,21.765,0.643s3.354-0.005,7.837-0.091c4.484-0.086,10.068-0.253,14.548-0.577 c1.252-0.149,3.943-0.162,6.378-2.712c1.919-1.943,2.469-6.355,2.469-6.355S64,39.234,64,34.052v-4.858 C64,24.013,63.512,19.103,63.512,19.103z M25.679,39.938l-0.003-17.99l17.301,9.026L25.679,39.938z"/></svg>