<svg xmlns="http://www.w3.org/2000/svg" width="64" height="64" viewBox="0 0 64 64"><path d="M63.347,8.449c-12.639,0-10.203,0.02-25.022,0.02c-0.321,0-0.729,0.301-0.729,0.701c0,28.218-0.003,3.933-0.003,46.743 c0,0.295,0.272,0.662,0.729,0.662c2.863,0,3.169,0.004,3.959-0.004c0.227,0.001,0.691,2.55,1.701,5.349 c5.387-3.495,7.795-4.982,9.019-5.328c3.466-0.016,9.815-0.021,10.36-0.021c0.281,0,0.621-0.345,0.621-0.679 C63.981,24.724,64,41.027,64,9.061C64,8.684,63.577,8.472,63.347,8.449z M58.685,50.917c0,0.202-0.206,0.411-0.376,0.411 c-0.33,0-3.283,0.003-5.383,0.012c-0.074,0-0.196,0.049-0.293,0.116c-1.321,0.911-3.29,2.172-6.512,4.12 c-0.554-1.87-1.045-4.241-1.183-4.242c-0.478,0.005,0.133,0.002-1.601,0.002c-0.277,0-0.442-0.222-0.442-0.401 c0-25.936,0.002-19.848,0.002-36.943c0-0.243,0.247-0.425,0.442-0.425c8.978,0,7.245-0.012,14.902-0.012 c0.187,0,0.455,0.18,0.455,0.408C58.697,33.33,58.685,32.034,58.685,50.917zM20.847,35.553c8.49,0,5.147,0.006,13.461,0.006c-0.067-3.729-0.865-5.072-1.404-5.133c-8.507,0-1.75-0.003-11.682-0.003 c0.022-0.34,0.446-8.58,0.611-15.942h11.056c0.271-2.716-0.382-5.065-1.613-5.214c-14.996,0-5.826,0.016-19.608,0.016 c0.302-1.167,0.666-2.547,1.084-3.871c0.643-2.034,1.368-3.969,1.702-4.765c-0.273-0.17-0.747-0.052-1.935,0.231 c-1.385,0.413-2.183,0.823-3.351,1.823c-0.61,0.522-1.062,1.197-1.426,1.948c-1.262,3.102-3.778,11.757-7.04,17.715 c5.063-0.303,7.552-3.216,8.39-5.527c0.312-0.86,0.633-1.66,0.817-2.39c2.135-0.016,3.767-0.017,6.725-0.017 c0.031,2.928-0.043,8.616-0.517,15.962c-5.93,0-8.684-0.041-12.08-0.041c-1.747,0.474-2.672,3.309-2.951,5.163 c0.016,0.016,0.033,0.033,0.049,0.049c7.647,0,6.239,0,14.387,0c-0.351,2.771-0.463,4.132-1.633,8.192 c-1.989,5.997-5.076,10.778-9.402,15.081c-1.155,1.149-2.762,2.604-4.337,3.844C0.099,62.747,0.049,62.812,0,62.878 c1.482,1.285,6.613-0.019,7.836-0.443c0.991-0.344,1.99-0.609,2.711-1.232c2.753-2.381,6.139-7.644,8.304-15.536 c7.824,9.131,9.636,11.877,11.607,14.156h0.197c0.622-2.304,1.064-5.951,0.246-7.738c-0.055-0.252-0.26-0.549-0.477-0.885 c-3.922-4.693-3.868-4.601-8.126-9.277c-2.525,2.023-3.103,2.525-3.103,2.525s0.588-2.207,0.765-2.984 C20.525,38.98,20.567,37.855,20.847,35.553z"/></svg>